<?xml version="1.0" encoding="utf-8"?>
<!-- Generator: Adobe Illustrator 27.5.0, SVG Export Plug-In . SVG Version: 6.00 Build 0)  -->
<svg version="1.1" xmlns="http://www.w3.org/2000/svg" xmlns:xlink="http://www.w3.org/1999/xlink" x="0px" y="0px"
	 viewBox="0 0 3710 3710" style="enable-background:new 0 0 3710 3710;" xml:space="preserve">
<g id="Background">
	<g>
		<g>
			<rect style="fill:#FFFFFF;" width="3710" height="3710"/>
		</g>
	</g>
</g>
<g id="Illustration">
	<g>
		<linearGradient id="SVGID_1_" gradientUnits="userSpaceOnUse" x1="3538.7332" y1="3654.6465" x2="1058.1045" y2="1110.4138">
			<stop  offset="0" style="stop-color:#DAE3FE"/>
			<stop  offset="1" style="stop-color:#E9EFFD"/>
		</linearGradient>
		<path style="fill:url(#SVGID_1_);" d="M2913.501,2844.699c-72.79,75.03-137.92,119.135-187.786,152.431
			c-486.333,324.729-1042.264,231.134-1214.144,199.144c-277.308-51.613-511.393-88.023-712.515-269.729
			c-457.009-412.89-434.781-1274.208-85.57-1807.758c41.406-63.264,390.088-580.119,947.223-652.948
			c13.627-1.781,23.794-2.796,32.699-3.738c86.187-9.125,620.274-57.287,1055.768,307.57
			c62.339,52.227,162.66,146.432,255.69,290.111C3345.027,1585.134,3346.105,2398.788,2913.501,2844.699z"/>
		<g>
			<path style="fill:#91B3FA;" d="M547.187,594.386c-0.318-28.643,24.758-50.944,53.163-47.242
				c188.388,24.55,836.16,100.138,1371.177,56.267c24.399-2.001,45.678,16.383,47.104,40.822l117.144,2007.013
				c1.606,27.519-19.291,51.168-46.8,52.94C1863.936,2718.679,937.14,2775,606.289,2742.087
				c-20.136-2.004-35.501-18.868-35.725-39.103L547.187,594.386z"/>
			<path style="fill:#BDD0FB;" d="M569.623,644.579c-0.306-27.565,23.826-49.026,51.161-45.463
				c181.294,23.625,804.674,96.368,1319.544,54.148c23.48-1.925,43.958,15.766,45.33,39.285l112.733,1931.438
				c1.546,26.483-18.565,49.242-45.038,50.947c-216.564,13.947-1108.462,68.148-1426.854,36.473
				c-19.378-1.927-34.164-18.157-34.38-37.63L569.623,644.579z"/>
			<path style="opacity:0.78;fill:#FFFFFF;" d="M738.108,792.659l21.396,414.096c0.712,13.772,11.897,24.668,25.685,24.985
				c76.721,1.764,315.781,6.351,450.709-1.388c15.263-0.875,27.276-13.289,27.703-28.571c2.169-77.69,6.625-303.805-11.568-398.224
				c-2.939-15.252-16.119-26.37-31.645-26.832l-453.487-13.497C750.549,762.743,737.264,776.321,738.108,792.659z"/>
			
				<linearGradient id="SVGID_00000115511159926940171390000010862306061673163956_" gradientUnits="userSpaceOnUse" x1="937.2199" y1="757.9873" x2="1907.2281" y2="1860.509" gradientTransform="matrix(0.981 0.1939 -0.1939 0.981 106.7529 -193.4376)">
				<stop  offset="0" style="stop-color:#CE1567"/>
				<stop  offset="1" style="stop-color:#7A1DBC"/>
			</linearGradient>
			<circle style="fill:url(#SVGID_00000115511159926940171390000010862306061673163956_);" cx="999.777" cy="939.386" r="89.041"/>
			
				<linearGradient id="SVGID_00000127002394574007165600000004774784725415432326_" gradientUnits="userSpaceOnUse" x1="851.7872" y1="833.1287" x2="1821.8257" y2="1935.6848" gradientTransform="matrix(0.981 0.1939 -0.1939 0.981 106.7529 -193.4376)">
				<stop  offset="0" style="stop-color:#CE1567"/>
				<stop  offset="1" style="stop-color:#7A1DBC"/>
			</linearGradient>
			<path style="fill:url(#SVGID_00000127002394574007165600000004774784725415432326_);" d="M865.893,1201.506l283.668-1.476
				c17.391-0.091,27.712-19.349,18.27-33.954c-24.291-37.577-74.991-92.703-162.285-89.749
				c-84.134,2.847-133.748,53.137-158.634,89.149C836.346,1180.764,847.31,1201.603,865.893,1201.506z"/>
			<g style="opacity:0.6;">
				<path style="fill:#FFFFFF;" d="M1872.649,822.812c8.884-0.046,15.938-6.336,15.675-13.977
					c-0.263-7.641-7.746-13.984-16.63-14.097l-497.24-6.273c-8.883-0.112-13.701,6.64-10.706,15.004l2.414,6.743
					c2.995,8.364,12.714,15.17,21.598,15.123L1872.649,822.812z"/>
			</g>
			<g style="opacity:0.6;">
				<path style="fill:#FFFFFF;" d="M1374.855,865.681c-8.883-0.112-13.701,6.64-10.707,15.004l2.414,6.743
					c2.995,8.364,12.714,15.17,21.598,15.123l484.89-2.523c8.884-0.046,15.938-6.336,15.674-13.977
					c-0.263-7.641-7.746-13.984-16.63-14.097L1374.855,865.681z"/>
			</g>
			<g style="opacity:0.6;">
				<path style="fill:#FFFFFF;" d="M1375.263,944.019c-8.883-0.112-13.701,6.64-10.707,15.004l2.414,6.743
					c2.995,8.364,12.714,15.17,21.598,15.123l484.89-2.523c8.884-0.046,15.938-6.336,15.674-13.977
					c-0.263-7.641-7.746-13.984-16.63-14.096L1375.263,944.019z"/>
			</g>
			<g style="opacity:0.6;">
				<path style="fill:#FFFFFF;" d="M1923.717,1355.902c8.884-0.046,15.707-6.335,15.163-13.974
					c-0.544-7.64-8.259-13.91-17.143-13.933l-1164.842-3.12c-8.884-0.024-11.596,5.62-6.026,12.541l9.58,11.904
					c5.57,6.921,17.396,12.546,26.28,12.5L1923.717,1355.902z"/>
			</g>
			<g style="opacity:0.6;">
				<path style="fill:#FFFFFF;" d="M757.297,1402.09c-8.884-0.024-11.596,5.619-6.025,12.541l9.58,11.904
					c5.57,6.921,17.396,12.546,26.28,12.5l1136.987-5.916c8.884-0.046,15.707-6.335,15.163-13.974
					c-0.544-7.64-8.259-13.91-17.143-13.933L757.297,1402.09z"/>
			</g>
			<path style="opacity:0.6;fill:#FFFFFF;" d="M752.711,1531.04c27.995-2.292,80.436-3.56,109.303-4.113
				c12.232-0.234,23.004,7.996,25.935,19.874c5.692,23.07,13.587,63.138,12.841,105.639c-0.224,12.728-10.596,22.942-23.326,22.871
				l-106.542-0.593c-13.102-0.073-24.031-10.032-25.318-23.071l-9.888-100.175C734.693,1541.11,742.333,1531.89,752.711,1531.04z"/>
			<g style="opacity:0.6;">
				<path style="fill:#FFFFFF;" d="M949.94,1571.17c-8.878-0.325-15.025,6.592-13.66,15.371l2.669,17.165
					c1.365,8.779,9.751,15.923,18.635,15.877l258.741-1.346c8.884-0.046,16.024-7.352,15.867-16.234l-0.077-4.37
					c-0.157-8.883-7.549-16.416-16.427-16.741L949.94,1571.17z"/>
			</g>
			<path style="opacity:0.6;fill:#FFFFFF;" d="M1333.105,1528.02c27.995-2.292,80.436-3.56,109.303-4.114
				c12.232-0.234,23.004,7.996,25.935,19.874c5.692,23.07,13.587,63.138,12.84,105.639c-0.223,12.728-10.595,22.942-23.326,22.87
				l-106.542-0.593c-13.102-0.073-24.031-10.032-25.318-23.07l-9.888-100.175C1315.087,1538.09,1322.728,1528.87,1333.105,1528.02z"
				/>
			<g style="opacity:0.6;">
				<path style="fill:#FFFFFF;" d="M1530.334,1568.15c-8.878-0.325-15.025,6.592-13.66,15.37l2.669,17.165
					c1.365,8.779,9.751,15.923,18.635,15.877l258.741-1.346c8.884-0.046,16.024-7.352,15.867-16.234l-0.077-4.37
					c-0.157-8.883-7.549-16.416-16.427-16.741L1530.334,1568.15z"/>
			</g>
			<g>
				<path style="fill:#FFFFFF;" d="M905.097,1927.899c-0.088,0-0.179,0.001-0.269,0.001l-98.312-0.432
					c-14.046-0.063-25.69-9.668-27.087-22.336l-9.07-82.438c-0.532-4.841,0.947-9.633,4.163-13.501
					c3.601-4.328,9.069-7.062,15.004-7.502l0,0c8.279-0.607,19.938-1.663,32.28-2.777c25.989-2.351,58.335-5.272,76.54-5.596
					c13.21-0.135,24.456,7.624,27.628,19.112c5.22,18.907,4.957,54.752,4.181,92.939
					C929.905,1917.773,918.689,1927.828,905.097,1927.899z M790.081,1809.222c-3.902,0.286-7.457,2.037-9.754,4.799
					c-1.896,2.276-2.77,5.064-2.464,7.845l9.07,82.438c0.975,8.856,9.409,15.569,19.617,15.615l98.311,0.432
					c0.065,0,0.131-0.001,0.197-0.001c9.526-0.05,17.379-6.802,17.549-15.134c0.763-37.608,1.038-72.848-3.911-90.78
					c-2.218-8.035-10.62-13.59-20.216-13.57c-17.934,0.318-50.127,3.228-75.994,5.567
					C810.111,1807.552,798.421,1808.607,790.081,1809.222L790.081,1809.222z"/>
				<path style="opacity:0.6;fill:#FFFFFF;" d="M800.701,1817.68c20.645-1.519,65.507-6.31,86.794-6.686
					c9.02-0.16,16.96,5.249,19.116,13.06c4.188,15.17,3.801,45.454,3.233,73.406c-0.17,8.371-7.823,15.093-17.21,15.051
					l-78.564-0.346c-9.661-0.042-17.716-6.588-18.66-15.162l-7.249-65.878C787.41,1824.31,793.048,1818.243,800.701,1817.68z"/>
				<g style="opacity:0.6;">
					<path style="fill:#FFFFFF;" d="M991.158,1872.681c2.902,10.777,12.745,18.213,23.905,18.06l909.539-12.488
						c10.289-0.141,18.476-8.669,18.198-18.956c-0.271-10.001-8.459-17.965-18.463-17.959l-909.625,0.585
						C998.656,1841.932,986.982,1857.176,991.158,1872.681z"/>
				</g>
				<path style="fill:#FFFFFF;" d="M906.194,2138.596c-0.088,0-0.179,0.001-0.269,0.001l-98.312-0.432
					c-14.046-0.063-25.69-9.667-27.087-22.336l-9.07-82.438c-0.532-4.84,0.947-9.633,4.163-13.501
					c3.601-4.328,9.069-7.062,15.004-7.502l0,0c8.279-0.607,19.938-1.663,32.28-2.778c25.989-2.35,58.335-5.272,76.54-5.595
					c0.132-0.001,0.265-0.005,0.396-0.006c12.928-0.067,24.091,7.748,27.232,19.118c5.22,18.908,4.957,54.752,4.181,92.939
					C931.001,2128.47,919.785,2138.525,906.194,2138.596z M791.177,2019.919c-3.902,0.286-7.457,2.037-9.754,4.799
					c-1.896,2.276-2.77,5.064-2.464,7.845l9.07,82.438c0.975,8.856,9.409,15.569,19.617,15.615l98.311,0.432
					c0.065,0,0.131,0,0.197-0.001c9.526-0.05,17.379-6.802,17.55-15.134c0.763-37.609,1.038-72.848-3.911-90.781
					c-2.22-8.031-10.741-13.77-20.218-13.57c-17.933,0.318-50.126,3.228-75.993,5.567
					C811.208,2018.248,799.518,2019.304,791.177,2019.919L791.177,2019.919z"/>
				<path style="opacity:0.6;fill:#FFFFFF;" d="M801.797,2028.377c20.645-1.519,65.507-6.31,86.794-6.686
					c9.02-0.159,16.96,5.249,19.116,13.06c4.188,15.17,3.801,45.454,3.233,73.406c-0.17,8.372-7.823,15.093-17.21,15.052
					l-78.564-0.346c-9.661-0.042-17.716-6.588-18.66-15.162l-7.25-65.878C788.507,2035.008,794.145,2028.94,801.797,2028.377z"/>
				<g style="opacity:0.6;">
					<path style="fill:#FFFFFF;" d="M992.254,2083.377c2.902,10.777,12.745,18.213,23.905,18.06l909.539-12.488
						c10.289-0.141,18.476-8.669,18.198-18.956c-0.271-10.001-8.459-17.965-18.463-17.958l-909.625,0.584
						C999.752,2052.629,988.078,2067.873,992.254,2083.377z"/>
				</g>
				<path style="fill:#FFFFFF;" d="M907.29,2349.292c-0.089,0-0.179,0.001-0.269,0.001l-98.312-0.432
					c-14.046-0.06-25.69-9.66-27.087-22.333l-9.07-82.438c-0.532-4.841,0.947-9.637,4.165-13.505
					c3.601-4.328,9.068-7.062,15.002-7.502l0,0c8.279-0.607,19.938-1.663,32.28-2.778c25.989-2.351,58.335-5.272,76.54-5.595
					c0.132-0.001,0.265-0.005,0.396-0.006c12.928-0.067,24.091,7.748,27.232,19.118c5.22,18.908,4.957,54.752,4.181,92.939
					C932.097,2339.167,920.882,2349.221,907.29,2349.292z M792.274,2230.616c-3.902,0.286-7.457,2.037-9.754,4.798
					c-1.896,2.277-2.77,5.064-2.464,7.849l9.07,82.438c0.975,8.856,9.409,15.569,19.615,15.611l98.313,0.432
					c0.065,0,0.131,0,0.197-0.001c9.526-0.05,17.379-6.803,17.549-15.134c0.763-37.608,1.038-72.848-3.911-90.78
					c-2.22-8.031-10.741-13.8-20.218-13.57c-17.933,0.318-50.126,3.228-75.993,5.567
					C812.304,2228.945,800.614,2230.001,792.274,2230.616L792.274,2230.616z"/>
				<path style="opacity:0.6;fill:#FFFFFF;" d="M802.894,2239.074c20.645-1.519,65.507-6.31,86.794-6.686
					c9.02-0.159,16.96,5.249,19.116,13.06c4.188,15.17,3.801,45.454,3.233,73.406c-0.17,8.372-7.823,15.093-17.21,15.052
					l-78.564-0.346c-9.661-0.042-17.716-6.588-18.66-15.163l-7.25-65.878C789.603,2245.705,795.241,2239.637,802.894,2239.074z"/>
				<g style="opacity:0.6;">
					<path style="fill:#FFFFFF;" d="M993.351,2294.074c2.902,10.777,12.745,18.213,23.905,18.06l909.539-12.488
						c10.289-0.141,18.476-8.669,18.198-18.956c-0.271-10-8.459-17.965-18.463-17.958l-909.625,0.584
						C1000.849,2263.327,989.175,2278.57,993.351,2294.074z"/>
				</g>
				<path style="fill:#FFFFFF;" d="M908.386,2559.989c-0.088,0-0.179,0.001-0.269,0.001l-98.312-0.432
					c-14.046-0.06-25.69-9.66-27.087-22.333l-9.07-82.438c-0.532-4.84,0.947-9.636,4.165-13.505
					c3.601-4.328,9.068-7.062,15.002-7.502l0,0c8.279-0.607,19.938-1.663,32.28-2.777c25.989-2.351,58.335-5.272,76.54-5.595
					c0.132-0.001,0.265-0.005,0.396-0.006c12.928-0.067,24.091,7.748,27.232,19.118c5.22,18.907,4.957,54.752,4.181,92.939
					C933.194,2549.863,921.978,2559.918,908.386,2559.989z M793.37,2441.313c-3.902,0.285-7.457,2.037-9.754,4.799
					c-1.896,2.276-2.77,5.064-2.464,7.849l9.07,82.438c0.975,8.856,9.409,15.569,19.615,15.611l98.313,0.432
					c0.065,0,0.131-0.001,0.197-0.001c9.526-0.05,17.379-6.802,17.549-15.134c0.763-37.608,1.038-72.848-3.911-90.78
					c-2.22-8.031-10.741-13.826-20.218-13.57c-17.933,0.318-50.126,3.228-75.993,5.567
					C813.401,2439.642,801.71,2440.698,793.37,2441.313L793.37,2441.313z"/>
				<path style="opacity:0.6;fill:#FFFFFF;" d="M803.99,2449.771c20.645-1.519,65.507-6.31,86.794-6.686
					c9.02-0.159,16.96,5.249,19.116,13.06c4.188,15.17,3.801,45.454,3.233,73.406c-0.17,8.372-7.823,15.093-17.21,15.052
					l-78.564-0.346c-9.661-0.042-17.716-6.588-18.66-15.163l-7.249-65.878C790.699,2456.402,796.338,2450.334,803.99,2449.771z"/>
				<g style="opacity:0.6;">
					<path style="fill:#FFFFFF;" d="M994.447,2504.771L994.447,2504.771c2.902,10.778,12.745,18.213,23.905,18.06l909.539-12.488
						c10.289-0.142,18.476-8.669,18.198-18.956c-0.271-10-8.459-17.965-18.463-17.958l-909.625,0.584
						C1001.945,2474.024,990.271,2489.267,994.447,2504.771z"/>
				</g>
				
					<linearGradient id="SVGID_00000093141438997956055400000017447342250443241877_" gradientUnits="userSpaceOnUse" x1="980.3909" y1="1811.0576" x2="478.4012" y2="2667.8359" gradientTransform="matrix(1 -0.0052 0.0052 1 378.2248 -224.4017)">
					<stop  offset="0" style="stop-color:#A737D5"/>
					<stop  offset="1" style="stop-color:#EF497A"/>
				</linearGradient>
				<path style="fill:url(#SVGID_00000093141438997956055400000017447342250443241877_);" d="M808.242,2462.684L808.242,2462.684
					c7.276-4.32,16.682-1.814,20.843,5.554l19.571,34.658c1.959,3.469,7.035,3.223,8.649-0.42l47.536-107.321
					c2.371-5.354,10.335-3.589,10.278,2.265c-0.321,32.754-8.686,95.053-60.745,147.435c0,0-28.896-11.059-52.385-61.935
					C798.596,2475.572,801.283,2466.817,808.242,2462.684z"/>
			</g>
		</g>
		<g>
			<path style="fill:#91B3FA;" d="M665.951,719.4c-0.318-28.643,24.758-50.944,53.163-47.242
				c188.388,24.55,836.16,100.138,1371.177,56.267c24.399-2.001,45.678,16.383,47.104,40.822l117.145,2007.013
				c1.606,27.519-19.291,51.168-46.8,52.94c-225.038,14.493-1151.835,70.815-1482.685,37.901
				c-20.136-2.003-35.501-18.868-35.725-39.102L665.951,719.4z"/>
			<path style="fill:#BDD0FB;" d="M688.388,769.593c-0.306-27.565,23.826-49.025,51.161-45.463
				c181.294,23.625,804.674,96.368,1319.544,54.148c23.48-1.925,43.958,15.766,45.33,39.285l112.733,1931.438
				c1.546,26.483-18.565,49.242-45.038,50.947c-216.564,13.947-1108.462,68.148-1426.854,36.473
				c-19.378-1.927-34.164-18.157-34.38-37.63L688.388,769.593z"/>
			<path style="opacity:0.78;fill:#FFFFFF;" d="M856.872,917.673l21.396,414.096c0.712,13.772,11.897,24.668,25.685,24.985
				c76.721,1.765,315.781,6.351,450.709-1.388c15.263-0.875,27.276-13.289,27.703-28.571c2.169-77.69,6.625-303.804-11.568-398.224
				c-2.939-15.252-16.119-26.37-31.645-26.832l-453.487-13.497C869.313,887.757,856.028,901.335,856.872,917.673z"/>
			
				<linearGradient id="SVGID_00000012458210695273440460000005007944419364083108_" gradientUnits="userSpaceOnUse" x1="945.9988" y1="523.408" x2="1709.2678" y2="2916.5745">
				<stop  offset="0" style="stop-color:#4F52FF"/>
				<stop  offset="1" style="stop-color:#4042E2"/>
			</linearGradient>
			<circle style="fill:url(#SVGID_00000012458210695273440460000005007944419364083108_);" cx="1118.541" cy="1064.4" r="89.041"/>
			
				<linearGradient id="SVGID_00000078013309789181361370000000019644479572268220_" gradientUnits="userSpaceOnUse" x1="883.4666" y1="543.3529" x2="1646.7368" y2="2936.5232">
				<stop  offset="0" style="stop-color:#4F52FF"/>
				<stop  offset="1" style="stop-color:#4042E2"/>
			</linearGradient>
			<path style="fill:url(#SVGID_00000078013309789181361370000000019644479572268220_);" d="M984.657,1326.52l283.667-1.476
				c17.391-0.09,27.712-19.349,18.27-33.954c-24.291-37.577-74.991-92.703-162.286-89.749
				c-84.134,2.847-133.748,53.137-158.634,89.149C955.111,1305.778,966.075,1326.617,984.657,1326.52z"/>
			<g style="opacity:0.6;">
				<path style="fill:#FFFFFF;" d="M1991.413,947.826c8.884-0.046,15.938-6.336,15.675-13.977
					c-0.263-7.641-7.746-13.984-16.63-14.097l-497.24-6.273c-8.883-0.112-13.701,6.64-10.707,15.004l2.414,6.743
					c2.995,8.364,12.714,15.17,21.598,15.123L1991.413,947.826z"/>
			</g>
			<g style="opacity:0.6;">
				<path style="fill:#FFFFFF;" d="M1493.62,990.695c-8.883-0.112-13.701,6.64-10.707,15.004l2.414,6.743
					c2.995,8.364,12.714,15.17,21.598,15.123l484.89-2.523c8.884-0.046,15.938-6.336,15.674-13.977
					c-0.263-7.641-7.746-13.984-16.63-14.097L1493.62,990.695z"/>
			</g>
			<g style="opacity:0.6;">
				<path style="fill:#FFFFFF;" d="M1494.027,1069.033c-8.883-0.112-13.701,6.64-10.707,15.004l2.414,6.743
					c2.995,8.364,12.714,15.17,21.598,15.123l484.89-2.523c8.884-0.046,15.938-6.336,15.674-13.977
					c-0.263-7.641-7.746-13.984-16.63-14.097L1494.027,1069.033z"/>
			</g>
			<g style="opacity:0.6;">
				<path style="fill:#FFFFFF;" d="M2042.481,1480.916c8.884-0.046,15.707-6.335,15.163-13.974
					c-0.544-7.64-8.259-13.91-17.143-13.933l-1164.842-3.12c-8.884-0.024-11.596,5.619-6.025,12.541l9.58,11.904
					c5.57,6.921,17.396,12.546,26.28,12.5L2042.481,1480.916z"/>
			</g>
			<g style="opacity:0.6;">
				<path style="fill:#FFFFFF;" d="M876.062,1527.104c-8.884-0.024-11.596,5.619-6.025,12.541l9.58,11.904
					c5.57,6.921,17.396,12.546,26.28,12.5l1136.987-5.916c8.884-0.046,15.707-6.335,15.163-13.974s-8.259-13.91-17.143-13.933
					L876.062,1527.104z"/>
			</g>
			<path style="opacity:0.6;fill:#FFFFFF;" d="M871.475,1656.054c27.995-2.292,80.436-3.56,109.303-4.114
				c12.232-0.234,23.004,7.996,25.935,19.874c5.692,23.07,13.587,63.138,12.841,105.639c-0.224,12.728-10.596,22.942-23.326,22.871
				l-106.542-0.593c-13.102-0.073-24.032-10.032-25.318-23.071l-9.888-100.174C853.457,1666.124,861.098,1656.904,871.475,1656.054z
				"/>
			<g style="opacity:0.6;">
				<path style="fill:#FFFFFF;" d="M1068.704,1696.184c-8.878-0.325-15.025,6.592-13.66,15.371l2.669,17.165
					c1.365,8.779,9.751,15.923,18.635,15.877l258.741-1.346c8.884-0.046,16.024-7.352,15.867-16.234l-0.077-4.37
					c-0.157-8.883-7.549-16.416-16.427-16.741L1068.704,1696.184z"/>
			</g>
			<path style="opacity:0.6;fill:#FFFFFF;" d="M1451.87,1653.034c27.995-2.292,80.436-3.56,109.303-4.114
				c12.232-0.234,23.004,7.996,25.935,19.874c5.692,23.07,13.587,63.138,12.84,105.639c-0.223,12.728-10.595,22.942-23.326,22.871
				l-106.542-0.593c-13.102-0.073-24.031-10.032-25.318-23.071l-9.888-100.175
				C1433.852,1663.104,1441.492,1653.884,1451.87,1653.034z"/>
			<g style="opacity:0.6;">
				<path style="fill:#FFFFFF;" d="M1649.099,1693.163c-8.878-0.325-15.025,6.592-13.66,15.371l2.67,17.165
					c1.365,8.779,9.751,15.923,18.635,15.877l258.741-1.346c8.884-0.046,16.024-7.352,15.867-16.234l-0.077-4.37
					c-0.157-8.883-7.549-16.416-16.427-16.741L1649.099,1693.163z"/>
			</g>
			<g>
				<path style="fill:#FFFFFF;" d="M1023.862,2052.913c-0.088,0-0.179,0.001-0.269,0.001l-98.312-0.432
					c-14.046-0.063-25.69-9.668-27.087-22.337l-9.07-82.438c-0.532-4.841,0.947-9.632,4.163-13.501
					c3.601-4.328,9.069-7.062,15.004-7.502l0,0c8.279-0.607,19.938-1.663,32.28-2.778c25.989-2.351,58.335-5.272,76.54-5.596
					c13.21-0.135,24.456,7.624,27.628,19.112c5.22,18.907,4.957,54.752,4.181,92.939
					C1048.669,2042.787,1037.453,2052.842,1023.862,2052.913z M908.845,1934.236c-3.902,0.286-7.457,2.036-9.754,4.799
					c-1.896,2.276-2.77,5.064-2.464,7.845l9.07,82.438c0.975,8.856,9.409,15.569,19.617,15.615l98.311,0.432
					c0.065,0,0.131-0.001,0.197-0.001c9.526-0.05,17.379-6.802,17.55-15.134c0.763-37.608,1.038-72.848-3.911-90.78
					c-2.219-8.035-10.62-13.591-20.216-13.57c-17.934,0.318-50.127,3.228-75.994,5.567
					C928.876,1932.566,917.186,1933.621,908.845,1934.236L908.845,1934.236z"/>
				<path style="opacity:0.6;fill:#FFFFFF;" d="M919.465,1942.694c20.645-1.519,65.507-6.31,86.794-6.686
					c9.02-0.16,16.96,5.249,19.116,13.06c4.188,15.17,3.801,45.454,3.233,73.406c-0.17,8.371-7.823,15.093-17.21,15.051
					l-78.564-0.346c-9.661-0.042-17.716-6.588-18.66-15.162l-7.249-65.878C906.175,1949.324,911.813,1943.257,919.465,1942.694z"/>
				<g style="opacity:0.6;">
					<path style="fill:#FFFFFF;" d="M1109.922,1997.694c2.902,10.777,12.745,18.213,23.905,18.06l909.539-12.488
						c10.289-0.141,18.477-8.669,18.198-18.956c-0.271-10.001-8.459-17.965-18.463-17.959l-909.625,0.585
						C1117.42,1966.946,1105.746,1982.19,1109.922,1997.694z"/>
				</g>
				<path style="fill:#FFFFFF;" d="M1024.958,2263.61c-0.088,0-0.179,0.001-0.269,0.001l-98.312-0.432
					c-14.046-0.063-25.69-9.667-27.087-22.336l-9.07-82.438c-0.532-4.84,0.947-9.633,4.163-13.501
					c3.601-4.328,9.069-7.062,15.004-7.502l0,0c8.279-0.607,19.938-1.663,32.28-2.778c25.989-2.35,58.335-5.272,76.54-5.596
					c0.133,0,0.265-0.005,0.396-0.006c12.928-0.067,24.092,7.748,27.232,19.118c5.22,18.908,4.957,54.752,4.181,92.939
					C1049.765,2253.484,1038.55,2263.539,1024.958,2263.61z M909.942,2144.933c-3.902,0.286-7.457,2.037-9.754,4.799
					c-1.896,2.276-2.77,5.064-2.464,7.845l9.07,82.438c0.975,8.856,9.409,15.569,19.617,15.615l98.311,0.432
					c0.065,0,0.131-0.001,0.197-0.001c9.526-0.05,17.379-6.802,17.55-15.134c0.763-37.609,1.038-72.848-3.911-90.781
					c-2.22-8.031-10.741-13.77-20.218-13.57c-17.933,0.318-50.126,3.228-75.993,5.567
					C929.972,2143.262,918.282,2144.318,909.942,2144.933L909.942,2144.933z"/>
				<path style="opacity:0.6;fill:#FFFFFF;" d="M920.562,2153.391c20.645-1.519,65.507-6.31,86.794-6.686
					c9.02-0.159,16.96,5.249,19.116,13.06c4.188,15.17,3.801,45.454,3.233,73.406c-0.17,8.371-7.823,15.093-17.21,15.051
					l-78.564-0.346c-9.661-0.042-17.716-6.587-18.66-15.162l-7.25-65.878C907.271,2160.021,912.909,2153.954,920.562,2153.391z"/>
				<g style="opacity:0.6;">
					<path style="fill:#FFFFFF;" d="M1111.019,2208.392c2.902,10.777,12.745,18.213,23.905,18.06l909.539-12.488
						c10.289-0.141,18.476-8.669,18.198-18.956c-0.271-10.001-8.459-17.965-18.463-17.958l-909.625,0.584
						C1118.516,2177.643,1106.843,2192.887,1111.019,2208.392z"/>
				</g>
				<path style="fill:#FFFFFF;" d="M1026.054,2474.306c-0.088,0-0.179,0.001-0.269,0.001l-98.312-0.432
					c-14.046-0.06-25.69-9.66-27.087-22.333l-9.07-82.438c-0.532-4.841,0.947-9.637,4.165-13.505
					c3.601-4.328,9.068-7.062,15.002-7.502l0,0c8.279-0.607,19.938-1.663,32.28-2.777c25.989-2.351,58.335-5.272,76.54-5.596
					c0.132,0,0.265-0.005,0.396-0.006c12.928-0.067,24.092,7.748,27.232,19.118c5.22,18.908,4.957,54.752,4.181,92.939
					C1050.862,2464.181,1039.646,2474.236,1026.054,2474.306z M911.038,2355.63c-3.902,0.285-7.457,2.036-9.754,4.798
					c-1.896,2.277-2.77,5.064-2.464,7.85l9.07,82.438c0.975,8.856,9.409,15.569,19.615,15.611l98.313,0.432
					c0.065,0,0.131-0.001,0.197-0.001c9.526-0.05,17.379-6.803,17.549-15.134c0.763-37.608,1.038-72.848-3.911-90.78
					c-2.22-8.031-10.741-13.8-20.218-13.57c-17.933,0.318-50.126,3.228-75.993,5.567
					C931.069,2353.959,919.378,2355.015,911.038,2355.63L911.038,2355.63z"/>
				<path style="opacity:0.6;fill:#FFFFFF;" d="M921.658,2364.088c20.645-1.519,65.507-6.31,86.794-6.686
					c9.02-0.159,16.96,5.249,19.116,13.06c4.188,15.17,3.801,45.454,3.233,73.406c-0.17,8.371-7.823,15.093-17.21,15.051
					l-78.564-0.345c-9.661-0.043-17.716-6.588-18.66-15.163l-7.25-65.878C908.367,2370.719,914.005,2364.651,921.658,2364.088z"/>
				<g style="opacity:0.6;">
					<path style="fill:#FFFFFF;" d="M1112.115,2419.088c2.902,10.777,12.745,18.213,23.905,18.06l909.539-12.488
						c10.289-0.141,18.476-8.669,18.198-18.956c-0.271-10.001-8.459-17.965-18.463-17.958l-909.625,0.584
						C1119.613,2388.341,1107.939,2403.584,1112.115,2419.088z"/>
				</g>
				<path style="fill:#FFFFFF;" d="M1027.151,2685.003c-0.089,0-0.179,0.001-0.269,0.001l-98.312-0.432
					c-14.046-0.06-25.69-9.66-27.087-22.333l-9.07-82.438c-0.532-4.84,0.947-9.636,4.165-13.505
					c3.601-4.328,9.068-7.062,15.002-7.501l0,0c8.279-0.607,19.938-1.663,32.28-2.778c25.989-2.351,58.335-5.272,76.54-5.595
					c0.132-0.001,0.265-0.005,0.396-0.006c12.928-0.067,24.091,7.748,27.232,19.118c5.22,18.907,4.957,54.752,4.181,92.939
					C1051.958,2674.877,1040.742,2684.933,1027.151,2685.003z M912.135,2566.326c-3.902,0.286-7.457,2.036-9.754,4.799
					c-1.896,2.277-2.77,5.064-2.464,7.849l9.07,82.438c0.975,8.856,9.409,15.569,19.615,15.611l98.313,0.432
					c0.065,0,0.131-0.001,0.197-0.001c9.526-0.05,17.379-6.802,17.55-15.134c0.763-37.608,1.038-72.848-3.911-90.78
					c-2.22-8.031-10.741-13.826-20.218-13.57c-17.933,0.318-50.126,3.228-75.993,5.567
					C932.165,2564.656,920.475,2565.712,912.135,2566.326L912.135,2566.326z"/>
				<path style="opacity:0.6;fill:#FFFFFF;" d="M922.754,2574.785c20.645-1.519,65.507-6.31,86.794-6.686
					c9.02-0.159,16.96,5.249,19.116,13.06c4.188,15.17,3.801,45.454,3.233,73.406c-0.17,8.371-7.823,15.093-17.21,15.051
					l-78.564-0.345c-9.661-0.043-17.716-6.588-18.66-15.163l-7.249-65.878C909.464,2581.416,915.102,2575.348,922.754,2574.785z"/>
				<g style="opacity:0.6;">
					<path style="fill:#FFFFFF;" d="M1113.211,2629.785L1113.211,2629.785c2.902,10.778,12.745,18.213,23.905,18.06l909.539-12.488
						c10.289-0.142,18.477-8.669,18.198-18.956c-0.271-10-8.459-17.965-18.463-17.958l-909.625,0.584
						C1120.709,2599.038,1109.036,2614.281,1113.211,2629.785z"/>
				</g>
				
					<linearGradient id="SVGID_00000100344842274415322640000011883257056066484116_" gradientUnits="userSpaceOnUse" x1="383.4369" y1="702.8291" x2="1146.7073" y2="3095.9998">
					<stop  offset="0" style="stop-color:#FF928E"/>
					<stop  offset="1" style="stop-color:#FE7062"/>
				</linearGradient>
				<path style="fill:url(#SVGID_00000100344842274415322640000011883257056066484116_);" d="M927.007,2587.698L927.007,2587.698
					c7.276-4.321,16.682-1.814,20.843,5.554l19.571,34.658c1.959,3.469,7.035,3.223,8.649-0.42l47.536-107.321
					c2.371-5.354,10.335-3.589,10.278,2.265c-0.321,32.754-8.686,95.053-60.745,147.435c0,0-28.896-11.059-52.385-61.935
					C917.36,2600.586,920.047,2591.831,927.007,2587.698z"/>
				
					<linearGradient id="SVGID_00000085210625665301010020000000043208702663714746_" gradientUnits="userSpaceOnUse" x1="442.1293" y1="684.1129" x2="1205.3995" y2="3077.2832">
					<stop  offset="0" style="stop-color:#FF928E"/>
					<stop  offset="1" style="stop-color:#FE7062"/>
				</linearGradient>
				<path style="fill:url(#SVGID_00000085210625665301010020000000043208702663714746_);" d="M921.794,2368.612L921.794,2368.612
					c7.276-4.321,16.682-1.814,20.843,5.554l19.571,34.658c1.959,3.469,7.035,3.223,8.649-0.42l47.536-107.321
					c2.371-5.354,10.335-3.589,10.277,2.265c-0.321,32.754-8.686,95.053-60.745,147.435c0,0-28.896-11.059-52.385-61.935
					C912.147,2381.5,914.834,2372.744,921.794,2368.612z"/>
				
					<linearGradient id="SVGID_00000070839698312978319210000010650875535620235960_" gradientUnits="userSpaceOnUse" x1="502.9938" y1="664.6963" x2="1266.264" y2="3057.8667">
					<stop  offset="0" style="stop-color:#FF928E"/>
					<stop  offset="1" style="stop-color:#FE7062"/>
				</linearGradient>
				<path style="fill:url(#SVGID_00000070839698312978319210000010650875535620235960_);" d="M921.794,2158.359L921.794,2158.359
					c7.276-4.32,16.682-1.814,20.843,5.554l19.571,34.658c1.959,3.469,7.035,3.222,8.649-0.42l47.536-107.321
					c2.371-5.354,10.335-3.589,10.277,2.265c-0.321,32.754-8.686,95.053-60.745,147.435c0,0-28.896-11.059-52.385-61.935
					C912.147,2171.247,914.834,2162.492,921.794,2158.359z"/>
				
					<linearGradient id="SVGID_00000154395017552977849620000017277883984388103327_" gradientUnits="userSpaceOnUse" x1="568.0825" y1="643.9461" x2="1331.3528" y2="3037.1167">
					<stop  offset="0" style="stop-color:#FF928E"/>
					<stop  offset="1" style="stop-color:#FE7062"/>
				</linearGradient>
				<path style="fill:url(#SVGID_00000154395017552977849620000017277883984388103327_);" d="M927.007,1949.874L927.007,1949.874
					c7.276-4.32,16.682-1.814,20.843,5.554l19.571,34.658c1.959,3.469,7.035,3.223,8.649-0.42l47.536-107.321
					c2.371-5.354,10.335-3.589,10.278,2.265c-0.321,32.754-8.686,95.053-60.745,147.435c0,0-28.896-11.059-52.385-61.935
					C917.36,1962.762,920.047,1954.007,927.007,1949.874z"/>
			</g>
		</g>
		<g>
			
				<linearGradient id="SVGID_00000126296464158806918880000012213186719131458214_" gradientUnits="userSpaceOnUse" x1="2458.3508" y1="3946.354" x2="2439.0686" y2="2165.929">
				<stop  offset="0" style="stop-color:#FF928E"/>
				<stop  offset="0.7149" style="stop-color:#FE7062"/>
			</linearGradient>
			<path style="fill:url(#SVGID_00000126296464158806918880000012213186719131458214_);" d="M1703.655,2558.147l15.666,487.235
				c2.732,84.96,72.456,152.572,157.857,153.075l1166.769,6.877c57.079,0.336,105.705-41.137,114.039-97.342
				c18.244-123.044,41.49-343.202,15.314-549.846H1703.655z"/>
			<path style="fill:#FFFFFF;" d="M3019.802,3177.462c-1.863,0-3.407-1.475-3.475-3.352c-0.071-1.918,1.425-3.536,3.349-3.611
				c6.749-0.251,13.485-1.149,20.016-2.673c1.86-0.435,3.744,0.735,4.179,2.605c0.439,1.87-0.728,3.747-2.601,4.182
				c-6.964,1.618-14.141,2.577-21.336,2.849C3019.89,3177.462,3019.845,3177.462,3019.802,3177.462z M2971.064,3177.279
				c-0.006,0-0.013,0-0.02,0l-20.89-0.123c-1.925-0.014-3.471-1.578-3.462-3.502c0.01-1.918,1.568-3.461,3.482-3.461
				c0.007,0,0.014,0,0.021,0l20.89,0.123c1.924,0.013,3.471,1.577,3.461,3.502
				C2974.536,3175.735,2972.978,3177.279,2971.064,3177.279z M2901.429,3176.871c-0.006,0-0.013,0-0.02,0l-20.887-0.123
				c-1.925-0.014-3.471-1.578-3.462-3.502c0.01-1.918,1.568-3.462,3.482-3.462c0.007,0,0.014,0,0.021,0l20.887,0.123
				c1.924,0.013,3.471,1.577,3.461,3.502C2904.901,3175.327,2903.343,3176.871,2901.429,3176.871z M2831.798,3176.456
				c-0.006,0-0.013,0-0.02,0l-20.89-0.123c-1.925-0.013-3.471-1.577-3.462-3.502c0.01-1.918,1.568-3.461,3.482-3.461
				c0.007,0,0.014,0,0.021,0l20.89,0.123c1.924,0.014,3.471,1.578,3.461,3.502
				C2835.27,3174.912,2833.712,3176.456,2831.798,3176.456z M2762.163,3176.048c-0.006,0-0.013,0-0.02,0l-20.891-0.123
				c-1.925-0.013-3.471-1.577-3.461-3.502c0.01-1.925,1.867-3.482,3.503-3.462l20.89,0.123c1.924,0.014,3.471,1.578,3.461,3.502
				C2765.635,3174.504,2764.078,3176.048,2762.163,3176.048z M2692.529,3175.64c-0.006,0-0.013,0-0.02,0l-20.887-0.123
				c-1.925-0.013-3.471-1.577-3.461-3.502c0.01-1.918,1.567-3.461,3.482-3.461c0.007,0,0.014,0,0.02,0l20.888,0.123
				c1.924,0.014,3.471,1.578,3.461,3.502C2696.001,3174.096,2694.443,3175.64,2692.529,3175.64z M2622.898,3175.225
				c-0.007,0-0.013,0-0.02,0l-20.89-0.122c-1.925-0.014-3.471-1.578-3.462-3.503c0.01-1.918,1.568-3.461,3.482-3.461
				c0.007,0,0.014,0,0.02,0l20.89,0.122c1.925,0.014,3.472,1.578,3.462,3.502C2626.37,3173.682,2624.812,3175.225,2622.898,3175.225
				z M2553.263,3174.817c-0.007,0-0.013,0-0.02,0l-20.89-0.122c-1.925-0.014-3.471-1.578-3.461-3.503
				c0.01-1.917,1.567-3.461,3.482-3.461c0.007,0,0.014,0,0.02,0l20.89,0.123c1.925,0.013,3.472,1.577,3.462,3.502
				C2556.735,3173.274,2555.177,3174.817,2553.263,3174.817z M2483.632,3174.409c-0.007,0-0.013,0-0.02,0l-20.89-0.123
				c-1.925-0.014-3.472-1.578-3.462-3.503c0.01-1.917,1.568-3.461,3.482-3.461c0.007,0,0.014,0,0.02,0l20.89,0.123
				c1.925,0.013,3.472,1.577,3.462,3.502C2487.103,3172.866,2485.546,3174.409,2483.632,3174.409z M2413.997,3173.994
				c-0.007,0-0.013,0-0.02,0l-20.89-0.123c-1.925-0.013-3.472-1.578-3.462-3.502c0.01-1.918,1.567-3.462,3.482-3.462
				c0.007,0,0.014,0,0.02,0l20.89,0.123c1.925,0.013,3.472,1.577,3.461,3.502
				C2417.469,3172.451,2415.912,3173.994,2413.997,3173.994z M2344.363,3173.586c-0.007,0-0.013,0-0.02,0l-20.89-0.123
				c-1.925-0.013-3.472-1.577-3.461-3.502c0.01-1.918,1.567-3.461,3.482-3.461c0.007,0,0.014,0,0.02,0l20.89,0.122
				c1.925,0.013,3.472,1.578,3.461,3.502C2347.834,3172.042,2346.277,3173.586,2344.363,3173.586z M2274.732,3173.178
				c-0.007,0-0.014,0-0.02,0l-20.89-0.122c-1.925-0.013-3.472-1.577-3.461-3.502c0.01-1.918,1.567-3.461,3.482-3.461
				c0.007,0,0.013,0,0.02,0l20.89,0.123c1.925,0.014,3.472,1.578,3.462,3.502
				C2278.203,3171.635,2276.646,3173.178,2274.732,3173.178z M2205.097,3172.763c-0.007,0-0.014,0-0.02,0l-20.89-0.122
				c-1.925-0.014-3.472-1.578-3.461-3.502c0.01-1.918,1.567-3.461,3.482-3.461c0.007,0,0.013,0,0.02,0l20.89,0.122
				c1.925,0.014,3.472,1.578,3.462,3.503C2208.568,3171.219,2207.011,3172.763,2205.097,3172.763z M2135.462,3172.355
				c-0.007,0-0.014,0-0.02,0l-20.89-0.122c-1.925-0.014-3.472-1.578-3.462-3.503c0.01-1.918,1.567-3.461,3.482-3.461
				c0.007,0,0.013,0,0.02,0l20.89,0.122c1.925,0.014,3.472,1.578,3.461,3.502
				C2138.934,3170.812,2137.377,3172.355,2135.462,3172.355z M2065.831,3171.947c-0.007,0-0.014,0-0.02,0l-20.891-0.122
				c-1.925-0.014-3.472-1.578-3.462-3.502c0.01-1.924,1.815-3.223,3.502-3.461l20.89,0.122c1.925,0.014,3.471,1.578,3.461,3.503
				C2069.302,3170.404,2067.746,3171.947,2065.831,3171.947z M1996.197,3171.533c-0.007,0-0.014,0-0.02,0l-20.89-0.123
				c-1.925-0.014-3.472-1.578-3.462-3.502c0.01-1.918,1.567-3.462,3.482-3.462c0.007,0,0.013,0,0.02,0l20.89,0.123
				c1.925,0.013,3.471,1.577,3.461,3.502C1999.668,3169.989,1998.111,3171.533,1996.197,3171.533z M1926.562,3171.125
				c-0.007,0-0.014,0-0.02,0l-20.89-0.123c-1.925-0.014-3.472-1.578-3.462-3.502c0.01-1.918,1.567-3.461,3.482-3.461
				c0.007,0,0.013,0,0.02,0l20.89,0.123c1.925,0.013,3.471,1.577,3.462,3.502
				C1930.033,3169.581,1928.476,3171.125,1926.562,3171.125z M1857.757,3163.345c-0.36,0-0.731-0.054-1.091-0.177
				c-6.715-2.217-13.363-4.937-19.758-8.092c-1.724-0.85-2.434-2.938-1.585-4.659c0.854-1.72,2.934-2.427,4.666-1.584
				c6.103,3.005,12.451,5.604,18.86,7.725c1.826,0.605,2.818,2.57,2.213,4.399
				C1860.579,3162.42,1859.219,3163.345,1857.757,3163.345z M3083.969,3153.607c-1.024,0-2.033-0.449-2.72-1.305
				c-1.204-1.503-0.959-3.693,0.54-4.897c5.271-4.216,10.143-8.949,14.488-14.056c1.241-1.469,3.431-1.652,4.906-0.401
				c1.465,1.244,1.646,3.441,0.398,4.909c-4.631,5.448-9.826,10.493-15.44,14.988
				C3085.498,3153.355,3084.73,3153.607,3083.969,3153.607z M1798.938,3127.297c-0.884,0-1.771-0.333-2.448-1.006
				c-5.067-5.011-9.816-10.404-14.118-16.028c-1.169-1.523-0.877-3.713,0.65-4.882c1.526-1.163,3.72-0.877,4.879,0.653
				c4.11,5.365,8.646,10.521,13.485,15.308c1.367,1.353,1.381,3.556,0.027,4.923
				C1800.734,3126.95,1799.836,3127.297,1798.938,3127.297z M3121.21,3096.206c-0.289,0-0.585-0.034-0.877-0.109
				c-1.86-0.483-2.979-2.387-2.496-4.243c0.928-3.59,1.676-7.27,2.216-10.942l1.357-9.241c0.275-1.905,2.006-3.244,3.944-2.952
				c1.904,0.279,3.224,2.047,2.944,3.944l-1.356,9.269c-0.578,3.91-1.374,7.834-2.366,11.662
				C3124.171,3095.166,3122.757,3096.206,3121.21,3096.206z M1762.255,3068.828c-1.448,0-2.802-0.911-3.295-2.359
				c-2.288-6.698-4.121-13.648-5.45-20.646c-0.36-1.89,0.881-3.713,2.771-4.073c1.877-0.347,3.713,0.884,4.069,2.767
				c1.269,6.685,3.019,13.315,5.199,19.707c0.622,1.816-0.35,3.794-2.169,4.42
				C1763.006,3068.768,1762.628,3068.828,1762.255,3068.828z M3131.339,3027.327c-0.143,0-0.286-0.007-0.432-0.027
				c-1.907-0.238-3.264-1.972-3.025-3.883c0.833-6.739,1.662-13.641,2.482-20.713c0.221-1.912,1.969-3.278,3.859-3.061
				c1.911,0.224,3.278,1.952,3.057,3.863c-0.82,7.086-1.649,14.015-2.49,20.768
				C3134.573,3026.034,3133.073,3027.327,3131.339,3027.327z M1753.547,3000.105c-1.87,0-3.417-1.482-3.475-3.373l-0.673-20.884
				c-0.065-1.917,1.445-3.529,3.366-3.59c1.761-0.088,3.529,1.442,3.59,3.373l0.673,20.884c0.065,1.918-1.445,3.529-3.366,3.59
				C1753.625,3000.105,1753.588,3000.105,1753.547,3000.105z M3138.948,2958.1c-0.108,0-0.221-0.007-0.333-0.014
				c-1.914-0.183-3.319-1.884-3.135-3.801c0.649-6.821,1.285-13.75,1.897-20.775c0.167-1.918,1.829-3.23,3.771-3.168
				c1.914,0.163,3.333,1.856,3.166,3.767c-0.612,7.052-1.248,13.994-1.904,20.842C3142.24,2956.753,3140.723,2958.1,3138.948,2958.1
				z M1751.306,2930.504c-1.87,0-3.417-1.489-3.475-3.373l-0.67-20.876c-0.065-1.917,1.445-3.53,3.366-3.591
				c1.884-0.027,3.529,1.449,3.59,3.373l0.67,20.877c0.065,1.917-1.445,3.529-3.366,3.59
				C1751.384,2930.504,1751.347,2930.504,1751.306,2930.504z M3144.572,2888.683c-0.078,0-0.156,0-0.235-0.006
				c-1.917-0.13-3.369-1.789-3.243-3.707c0.456-6.868,0.884-13.811,1.278-20.822c0.106-1.918,1.758-3.441,3.669-3.278
				c1.921,0.109,3.39,1.748,3.281,3.672c-0.395,7.025-0.823,13.995-1.278,20.89
				C3147.922,2887.268,3146.392,2888.683,3144.572,2888.683z M1749.068,2860.904c-1.87,0-3.417-1.49-3.475-3.373l-0.67-20.876
				c-0.065-1.918,1.445-3.53,3.366-3.591c1.867-0.136,3.533,1.455,3.59,3.373l0.67,20.876c0.065,1.918-1.445,3.53-3.366,3.591
				C1749.147,2860.904,1749.106,2860.904,1749.068,2860.904z M3148.071,2819.13c-0.041,0-0.081,0-0.123,0
				c-1.921-0.068-3.427-1.68-3.359-3.597c0.231-6.908,0.435-13.859,0.602-20.849c0.047-1.931,1.894-3.332,3.563-3.4
				c1.925,0.048,3.444,1.639,3.4,3.563c-0.167,7.019-0.371,13.995-0.609,20.918
				C3151.485,2817.648,3149.938,2819.13,3148.071,2819.13z M1746.831,2791.31c-1.87,0-3.417-1.489-3.475-3.372l-0.67-20.884
				c-0.065-1.918,1.445-3.529,3.366-3.59c1.849,0.103,3.533,1.456,3.59,3.373l0.67,20.883c0.065,1.918-1.445,3.529-3.366,3.59
				C1746.91,2791.31,1746.869,2791.31,1746.831,2791.31z M3149.238,2749.495c-1.921,0-3.479-1.557-3.482-3.475
				c-0.01-6.922-0.058-13.873-0.146-20.856c-0.024-1.918,1.516-3.495,3.437-3.523c1.707,0.021,3.499,1.51,3.526,3.441
				c0.088,6.998,0.136,13.974,0.146,20.925c0.003,1.924-1.554,3.488-3.479,3.488H3149.238z M1744.594,2721.709
				c-1.87,0-3.417-1.483-3.475-3.373l-0.673-20.883c-0.064-1.918,1.446-3.529,3.366-3.59c1.636-0.041,3.533,1.435,3.591,3.373
				l0.673,20.883c0.065,1.918-1.445,3.529-3.366,3.591C1744.672,2721.709,1744.635,2721.709,1744.594,2721.709z M3147.768,2679.888
				c-1.856,0-3.397-1.462-3.475-3.339c-0.289-6.93-0.623-13.873-1.003-20.816c-0.109-1.918,1.364-3.563,3.284-3.666
				c1.905-0.163,3.557,1.361,3.666,3.285c0.388,6.97,0.721,13.941,1.01,20.911c0.082,1.918-1.411,3.543-3.332,3.625
				C3147.867,2679.888,3147.819,2679.888,3147.768,2679.888z M1742.357,2652.109c-1.87,0-3.418-1.482-3.475-3.373l-0.673-20.876
				c-0.065-1.918,1.445-3.53,3.366-3.59c1.642-0.198,3.532,1.441,3.59,3.372l0.673,20.87c0.064,1.925-1.445,3.536-3.366,3.597
				C1742.435,2652.109,1742.397,2652.109,1742.357,2652.109z M3143.294,2610.396c-1.785,0-3.305-1.36-3.464-3.176
				c-0.615-6.916-1.279-13.839-1.996-20.741c-0.2-1.911,1.187-3.625,3.101-3.822c1.914-0.191,3.624,1.19,3.825,3.101
				c0.721,6.943,1.391,13.893,2.006,20.849c0.17,1.911-1.244,3.604-3.159,3.774
				C3143.501,2610.389,3143.396,2610.396,3143.294,2610.396z M1740.116,2582.508c-1.87,0-3.417-1.489-3.475-3.373l-0.67-20.876
				c-0.065-1.917,1.445-3.53,3.366-3.591c1.652-0.02,3.529,1.442,3.59,3.373l0.67,20.877c0.065,1.917-1.445,3.529-3.366,3.59
				C1740.194,2582.508,1740.157,2582.508,1740.116,2582.508z M3117.484,2561.631h-20.89c-1.925,0-3.482-1.557-3.482-3.482
				c0-1.924,1.557-3.482,3.482-3.482h20.89c1.925,0,3.482,1.558,3.482,3.482C3120.965,2560.074,3119.408,2561.631,3117.484,2561.631
				z M3047.849,2561.631h-20.891c-1.925,0-3.482-1.557-3.482-3.482c0-1.924,1.557-3.482,3.482-3.482h20.891
				c1.925,0,3.482,1.558,3.482,3.482C3051.331,2560.074,3049.774,2561.631,3047.849,2561.631z M2978.214,2561.631h-20.89
				c-1.925,0-3.482-1.557-3.482-3.482c0-1.924,1.557-3.482,3.482-3.482h20.89c1.925,0,3.482,1.558,3.482,3.482
				C2981.696,2560.074,2980.139,2561.631,2978.214,2561.631z M2908.58,2561.631h-20.89c-1.925,0-3.482-1.557-3.482-3.482
				c0-1.924,1.557-3.482,3.482-3.482h20.89c1.925,0,3.482,1.558,3.482,3.482C2912.062,2560.074,2910.504,2561.631,2908.58,2561.631z
				 M2838.945,2561.631h-20.89c-1.925,0-3.482-1.557-3.482-3.482c0-1.924,1.557-3.482,3.482-3.482h20.89
				c1.925,0,3.482,1.558,3.482,3.482C2842.427,2560.074,2840.87,2561.631,2838.945,2561.631z M2769.311,2561.631h-20.89
				c-1.925,0-3.482-1.557-3.482-3.482c0-1.924,1.557-3.482,3.482-3.482h20.89c1.925,0,3.482,1.558,3.482,3.482
				C2772.792,2560.074,2771.235,2561.631,2769.311,2561.631z M2699.676,2561.631h-20.89c-1.925,0-3.482-1.557-3.482-3.482
				c0-1.924,1.557-3.482,3.482-3.482h20.89c1.925,0,3.482,1.558,3.482,3.482C2703.158,2560.074,2701.601,2561.631,2699.676,2561.631
				z M2630.042,2561.631h-20.89c-1.925,0-3.482-1.557-3.482-3.482c0-1.924,1.557-3.482,3.482-3.482h20.89
				c1.925,0,3.482,1.558,3.482,3.482C2633.523,2560.074,2631.966,2561.631,2630.042,2561.631z M2560.407,2561.631h-20.89
				c-1.925,0-3.482-1.557-3.482-3.482c0-1.924,1.557-3.482,3.482-3.482h20.89c1.925,0,3.482,1.558,3.482,3.482
				C2563.889,2560.074,2562.332,2561.631,2560.407,2561.631z M2490.772,2561.631h-20.89c-1.925,0-3.482-1.557-3.482-3.482
				c0-1.924,1.557-3.482,3.482-3.482h20.89c1.925,0,3.482,1.558,3.482,3.482C2494.254,2560.074,2492.697,2561.631,2490.772,2561.631
				z M2421.138,2561.631h-20.89c-1.925,0-3.482-1.557-3.482-3.482c0-1.924,1.557-3.482,3.482-3.482h20.89
				c1.925,0,3.482,1.558,3.482,3.482C2424.619,2560.074,2423.063,2561.631,2421.138,2561.631z M2351.503,2561.631h-20.89
				c-1.925,0-3.482-1.557-3.482-3.482c0-1.924,1.557-3.482,3.482-3.482h20.89c1.925,0,3.482,1.558,3.482,3.482
				C2354.985,2560.074,2353.428,2561.631,2351.503,2561.631z M2281.868,2561.631h-20.89c-1.925,0-3.482-1.557-3.482-3.482
				c0-1.924,1.557-3.482,3.482-3.482h20.89c1.925,0,3.482,1.558,3.482,3.482C2285.35,2560.074,2283.793,2561.631,2281.868,2561.631z
				 M2212.234,2561.631h-20.89c-1.925,0-3.482-1.557-3.482-3.482c0-1.924,1.557-3.482,3.482-3.482h20.89
				c1.925,0,3.482,1.558,3.482,3.482C2215.716,2560.074,2214.159,2561.631,2212.234,2561.631z M2142.599,2561.631h-20.89
				c-1.925,0-3.482-1.557-3.482-3.482c0-1.924,1.557-3.482,3.482-3.482h20.89c1.925,0,3.482,1.558,3.482,3.482
				C2146.081,2560.074,2144.524,2561.631,2142.599,2561.631z M2072.965,2561.631h-20.89c-1.925,0-3.482-1.557-3.482-3.482
				c0-1.924,1.557-3.482,3.482-3.482h20.89c1.925,0,3.482,1.558,3.482,3.482C2076.447,2560.074,2074.889,2561.631,2072.965,2561.631
				z M2003.33,2561.631h-20.89c-1.925,0-3.482-1.557-3.482-3.482c0-1.924,1.557-3.482,3.482-3.482h20.89
				c1.925,0,3.482,1.558,3.482,3.482C2006.812,2560.074,2005.255,2561.631,2003.33,2561.631z M1933.696,2561.631h-20.89
				c-1.925,0-3.482-1.557-3.482-3.482c0-1.924,1.557-3.482,3.482-3.482h20.89c1.925,0,3.482,1.558,3.482,3.482
				C1937.177,2560.074,1935.62,2561.631,1933.696,2561.631z M1864.061,2561.631h-20.89c-1.925,0-3.482-1.557-3.482-3.482
				c0-1.924,1.557-3.482,3.482-3.482h20.89c1.925,0,3.482,1.558,3.482,3.482C1867.543,2560.074,1865.986,2561.631,1864.061,2561.631
				z M1794.426,2561.631h-20.89c-1.925,0-3.482-1.557-3.482-3.482c0-1.924,1.557-3.482,3.482-3.482h20.89
				c1.925,0,3.482,1.558,3.482,3.482C1797.908,2560.074,1796.351,2561.631,1794.426,2561.631z"/>
			
				<linearGradient id="SVGID_00000086669276640938121000000001602302489636387518_" gradientUnits="userSpaceOnUse" x1="2150.4019" y1="2301.8757" x2="2141.8318" y2="2094.0535">
				<stop  offset="0" style="stop-color:#E1473D"/>
				<stop  offset="1" style="stop-color:#E9605A"/>
			</linearGradient>
			<path style="fill:url(#SVGID_00000086669276640938121000000001602302489636387518_);" d="M2045.595,2204.438l3.51-37.577
				c3.962-8.971,12.189-15.322,21.912-16.87c36.35-5.787,126.5-15.958,169.906,16.482l6.484,43.666L2045.595,2204.438z"/>
			
				<linearGradient id="SVGID_00000017482369690542769730000001846764710727082415_" gradientUnits="userSpaceOnUse" x1="2139.5518" y1="1989.8563" x2="2182.4019" y2="2585.4722">
				<stop  offset="0" style="stop-color:#E1473D"/>
				<stop  offset="1" style="stop-color:#E9605A"/>
			</linearGradient>
			<path style="fill:url(#SVGID_00000017482369690542769730000001846764710727082415_);" d="M2159.144,2168.283
				c-8.369,2.04-16.753,2.035-25.153-0.029c-10.163-2.498-17.332-11.591-17.332-22.01l0.001-117.664h59.88l0.001,117.577
				C2176.541,2156.623,2169.357,2165.792,2159.144,2168.283z"/>
			
				<linearGradient id="SVGID_00000142861111747262892450000007691853765276272531_" gradientUnits="userSpaceOnUse" x1="2729.3992" y1="2277.9995" x2="2720.8291" y2="2070.177">
				<stop  offset="0" style="stop-color:#E1473D"/>
				<stop  offset="1" style="stop-color:#E9605A"/>
			</linearGradient>
			<path style="fill:url(#SVGID_00000142861111747262892450000007691853765276272531_);" d="M2625.576,2204.438l3.51-37.577
				c3.962-8.971,12.189-15.322,21.911-16.87c36.351-5.787,126.5-15.958,169.907,16.482l6.485,43.666L2625.576,2204.438z"/>
			
				<linearGradient id="SVGID_00000024695395036750594540000004832686112511053464_" gradientUnits="userSpaceOnUse" x1="2716.9915" y1="1948.3141" x2="2759.8413" y2="2543.9294">
				<stop  offset="0" style="stop-color:#E1473D"/>
				<stop  offset="1" style="stop-color:#E9605A"/>
			</linearGradient>
			<path style="fill:url(#SVGID_00000024695395036750594540000004832686112511053464_);" d="M2739.126,2168.283
				c-8.369,2.04-16.753,2.035-25.154-0.029c-10.163-2.498-17.332-11.591-17.331-22.01l0.001-130.061h59.88l0.001,129.974
				C2756.523,2156.623,2749.34,2165.792,2739.126,2168.283z"/>
			
				<linearGradient id="SVGID_00000083793886357228067180000002703039434048412806_" gradientUnits="userSpaceOnUse" x1="2479.1523" y1="1658.2677" x2="2421.304" y2="2082.4856">
				<stop  offset="0" style="stop-color:#FF928E"/>
				<stop  offset="1" style="stop-color:#FE7062"/>
			</linearGradient>
			<path style="fill:url(#SVGID_00000083793886357228067180000002703039434048412806_);" d="M2110.579,2057.423l643.969-21.317
				c14.683-0.486,27.139-11.078,29.661-25.482c3.528-20.159,6.637-50.34,2-81.626c-5.273-35.578-35.876-62.007-71.997-62.866
				c-120.134-2.859-425.962-2.772-594.519,63.903c-17.827,7.052-31.05,22.287-35.564,40.846c-4.305,17.7-7.165,41.335-1.542,65.391
				C2085.574,2049.052,2097.402,2057.858,2110.579,2057.423z"/>
			<path style="fill:#FFFFFF;" d="M2099.425,2028.083c-3.533,0-6.559-2.672-6.922-6.263c-0.106-1.054-2.523-25.997,3.978-50.023
				c5.168-19.088,20.261-34.429,39.394-40.046c36.062-10.582,104.996-28.568,161.485-30.16c3.87-0.095,7.048,2.931,7.154,6.766
				c0.109,3.849-2.921,7.052-6.766,7.161c-54.922,1.537-122.537,19.204-157.953,29.602c-14.515,4.257-25.96,15.872-29.87,30.315
				c-5.838,21.57-3.587,44.753-3.563,44.984c0.384,3.829-2.404,7.242-6.229,7.63
				C2099.894,2028.07,2099.656,2028.083,2099.425,2028.083z"/>
			
				<linearGradient id="SVGID_00000029022008326117494150000006907858721699029921_" gradientUnits="userSpaceOnUse" x1="2496.5999" y1="1988.6434" x2="2284.4919" y2="3968.3184">
				<stop  offset="0" style="stop-color:#FF928E"/>
				<stop  offset="1" style="stop-color:#FE7062"/>
			</linearGradient>
			<path style="fill:url(#SVGID_00000029022008326117494150000006907858721699029921_);" d="M1746.815,2189.8
				c208.047-2.66,1108.041-12.116,1369.47,19.425c22.509,2.716,40.877,19.182,45.752,41.223
				c15.448,69.836,46.526,232.07,42.842,392.883c-0.501,21.885-16.548,40.35-38.154,44.438l-596.755,112.896h-211.978
				l-635.851-126.392c-22.413-4.455-38.933-23.438-40.094-46.156c-4.133-80.905-10.594-270.74,11.286-392.931
				C1697.983,2209.222,1720.32,2190.138,1746.815,2189.8z"/>
			<path style="fill:#FFFFFF;" d="M2363.057,2752.725c-0.224,0-0.453-0.02-0.684-0.068l-20.489-4.073
				c-1.884-0.374-3.111-2.203-2.734-4.094c0.377-1.876,2.186-3.148,4.094-2.734l20.305,4.039c0.153-0.02,0.309-0.034,0.466-0.034
				h20.89c1.924,0,3.482,1.557,3.482,3.482c0,1.925-1.558,3.482-3.482,3.482h-20.89c-0.164,0-0.323-0.013-0.48-0.034
				C2363.38,2752.712,2363.22,2752.725,2363.057,2752.725z M2524.175,2752.725h-20.89c-1.925,0-3.482-1.557-3.482-3.482
				c0-1.925,1.557-3.482,3.482-3.482h20.89c1.924,0,3.482,1.557,3.482,3.482C2527.657,2751.168,2526.099,2752.725,2524.175,2752.725
				z M2454.541,2752.725h-20.89c-1.925,0-3.482-1.557-3.482-3.482c0-1.925,1.557-3.482,3.482-3.482h20.89
				c1.924,0,3.482,1.557,3.482,3.482C2458.023,2751.168,2456.465,2752.725,2454.541,2752.725z M2572.781,2751.284
				c-1.643,0-3.102-1.163-3.418-2.835c-0.356-1.891,0.884-3.713,2.775-4.067l20.526-3.883c1.907-0.34,3.713,0.884,4.067,2.774
				c0.357,1.891-0.884,3.713-2.774,4.067l-20.527,3.883C2573.212,2751.264,2572.994,2751.284,2572.781,2751.284z M2294.759,2739.152
				c-0.225,0-0.453-0.02-0.684-0.068l-20.49-4.073c-1.884-0.374-3.111-2.21-2.733-4.094c0.374-1.877,2.173-3.108,4.094-2.734
				l20.489,4.073c1.884,0.374,3.111,2.203,2.734,4.094C2297.839,2738.003,2296.387,2739.152,2294.759,2739.152z M2641.2,2738.336
				c-1.642,0-3.101-1.163-3.417-2.835c-0.357-1.891,0.884-3.713,2.775-4.067l20.526-3.883c1.884-0.361,3.709,0.884,4.066,2.774
				c0.357,1.891-0.884,3.713-2.774,4.067l-20.527,3.883C2641.632,2738.316,2641.415,2738.336,2641.2,2738.336z M2226.46,2725.572
				c-0.225,0-0.453-0.02-0.684-0.068l-20.489-4.073c-1.883-0.374-3.111-2.203-2.733-4.094c0.374-1.876,2.189-3.122,4.094-2.734
				l20.489,4.073c1.884,0.374,3.111,2.203,2.734,4.094C2229.54,2724.423,2228.089,2725.572,2226.46,2725.572z M2709.621,2725.395
				c-1.642,0-3.101-1.163-3.417-2.835c-0.357-1.891,0.884-3.713,2.774-4.067l20.527-3.883c1.887-0.326,3.709,0.884,4.067,2.774
				c0.357,1.89-0.884,3.713-2.775,4.066l-20.526,3.883C2710.053,2725.375,2709.836,2725.395,2709.621,2725.395z M2778.042,2712.447
				c-1.642,0-3.101-1.163-3.417-2.835c-0.357-1.891,0.884-3.713,2.774-4.067l20.527-3.883c1.891-0.34,3.709,0.884,4.067,2.774
				c0.357,1.891-0.884,3.713-2.775,4.067l-20.526,3.883C2778.474,2712.427,2778.257,2712.447,2778.042,2712.447z M2158.162,2711.999
				c-0.225,0-0.453-0.02-0.684-0.068l-20.489-4.073c-1.884-0.375-3.111-2.203-2.733-4.094c0.377-1.884,2.176-3.135,4.093-2.734
				l20.489,4.073c1.884,0.375,3.111,2.21,2.734,4.094C2161.242,2710.849,2159.79,2711.999,2158.162,2711.999z M2846.463,2699.506
				c-1.643,0-3.101-1.163-3.417-2.835c-0.357-1.891,0.884-3.713,2.774-4.067l20.527-3.883c1.893-0.367,3.709,0.891,4.066,2.774
				c0.357,1.891-0.884,3.714-2.774,4.067l-20.527,3.883C2846.895,2699.486,2846.677,2699.506,2846.463,2699.506z M2089.864,2698.419
				c-0.225,0-0.453-0.02-0.68-0.068l-20.489-4.067c-1.887-0.374-3.111-2.203-2.737-4.094c0.37-1.877,2.22-3.148,4.09-2.733
				l20.489,4.067c1.887,0.374,3.115,2.203,2.737,4.093C2092.947,2697.269,2091.492,2698.419,2089.864,2698.419z M2914.884,2686.559
				c-1.643,0-3.101-1.163-3.417-2.836c-0.357-1.89,0.884-3.713,2.775-4.066l20.526-3.884c1.897-0.326,3.71,0.885,4.067,2.775
				c0.357,1.891-0.884,3.713-2.774,4.066l-20.527,3.883C2915.316,2686.538,2915.098,2686.559,2914.884,2686.559z M2021.565,2684.845
				c-0.225,0-0.453-0.021-0.684-0.068l-20.489-4.074c-1.884-0.374-3.111-2.203-2.734-4.093c0.377-1.877,2.18-3.108,4.094-2.734
				l20.489,4.073c1.884,0.374,3.111,2.203,2.734,4.094C2024.645,2683.696,2023.193,2684.845,2021.565,2684.845z M2983.305,2673.618
				c-1.643,0-3.102-1.163-3.417-2.836c-0.357-1.89,0.884-3.713,2.775-4.066l20.526-3.884c1.901-0.353,3.709,0.885,4.067,2.775
				s-0.884,3.713-2.774,4.067l-20.527,3.883C2983.737,2673.597,2983.519,2673.618,2983.305,2673.618z M1953.266,2671.272
				c-0.224,0-0.452-0.021-0.683-0.068l-20.489-4.073c-1.884-0.374-3.111-2.203-2.734-4.094c0.375-1.884,2.197-3.121,4.094-2.733
				l20.489,4.073c1.884,0.374,3.111,2.21,2.734,4.094C1956.347,2670.123,1954.895,2671.272,1953.266,2671.272z M3051.725,2660.67
				c-1.642,0-3.101-1.163-3.417-2.835c-0.357-1.891,0.884-3.713,2.775-4.067l20.526-3.883c1.904-0.313,3.713,0.891,4.067,2.774
				c0.357,1.891-0.885,3.713-2.774,4.067l-20.527,3.883C3052.157,2660.65,3051.939,2660.67,3051.725,2660.67z M1884.968,2657.692
				c-0.224,0-0.452-0.021-0.683-0.068l-20.489-4.074c-1.884-0.374-3.111-2.203-2.734-4.094c0.377-1.884,2.183-3.128,4.094-2.733
				l20.489,4.073c1.884,0.374,3.111,2.203,2.734,4.094C1888.049,2656.542,1886.597,2657.692,1884.968,2657.692z M3120.146,2647.729
				c-1.642,0-3.101-1.163-3.417-2.835c-0.357-1.891,0.884-3.713,2.774-4.067l20.527-3.883c1.907-0.333,3.713,0.884,4.067,2.774
				c0.356,1.891-0.885,3.713-2.775,4.067l-20.526,3.883C3120.577,2647.709,3120.36,2647.729,3120.146,2647.729z M1816.67,2644.118
				c-0.224,0-0.452-0.02-0.683-0.068l-20.489-4.073c-1.884-0.374-3.111-2.203-2.734-4.094c0.374-1.877,2.2-3.148,4.094-2.734
				l20.489,4.074c1.884,0.374,3.111,2.203,2.734,4.094C1819.75,2642.969,1818.298,2644.118,1816.67,2644.118z M1748.371,2630.545
				c-0.224,0-0.452-0.02-0.683-0.068l-17.698-3.523l-0.415-8.276c-0.092-1.918,1.391-3.549,3.312-3.638
				c1.873-0.388,3.553,1.38,3.645,3.311l0.14,2.836l12.376,2.461c1.884,0.374,3.111,2.21,2.734,4.094
				C1751.452,2629.403,1750,2630.545,1748.371,2630.545z M3153.671,2605.772c-1.905,0-3.458-1.53-3.482-3.441
				c-0.088-6.957-0.235-13.9-0.439-20.823c-0.054-1.924,1.459-3.522,3.379-3.583c1.816,0.054,3.526,1.448,3.584,3.379
				c0.204,6.963,0.35,13.948,0.439,20.945c0.024,1.918-1.517,3.496-3.438,3.523
				C3153.702,2605.772,3153.685,2605.772,3153.671,2605.772z M1731.048,2573.287c-1.866,0-3.414-1.482-3.475-3.366
				c-0.228-6.705-0.442-13.69-0.639-20.904c-0.051-1.925,1.466-3.522,3.386-3.577c1.881,0.164,3.523,1.462,3.577,3.387
				c0.197,7.201,0.408,14.171,0.632,20.863c0.065,1.918-1.442,3.529-3.363,3.597
				C1731.13,2573.287,1731.089,2573.287,1731.048,2573.287z M3150.927,2536.212c-1.819,0-3.352-1.414-3.471-3.257
				c-0.452-6.984-0.948-13.914-1.49-20.802c-0.15-1.918,1.282-3.591,3.2-3.74c1.89-0.231,3.594,1.285,3.743,3.196
				c0.541,6.916,1.044,13.886,1.496,20.897c0.123,1.918-1.333,3.577-3.25,3.7C3151.08,2536.212,3151.002,2536.212,3150.927,2536.212
				z M1729.457,2503.659c-1.904,0-3.462-1.53-3.482-3.441c-0.078-6.868-0.136-13.853-0.167-20.918
				c-0.007-1.925,1.544-3.489,3.468-3.495c0.003,0,0.01,0,0.01,0c1.921,0,3.478,1.551,3.485,3.468
				c0.031,7.052,0.089,14.009,0.167,20.863c0.02,1.924-1.519,3.502-3.441,3.522
				C1729.484,2503.659,1729.471,2503.659,1729.457,2503.659z M3144.892,2466.802c-1.754,0-3.264-1.32-3.458-3.108
				c-0.758-6.998-1.547-13.907-2.37-20.72c-0.228-1.904,1.132-3.638,3.039-3.87c1.945-0.265,3.646,1.129,3.877,3.04
				c0.822,6.841,1.618,13.777,2.376,20.802c0.208,1.911-1.177,3.631-3.087,3.835
				C3145.144,2466.795,3145.018,2466.802,3144.892,2466.802z M1729.545,2434.018c-0.017,0-0.034,0-0.054,0
				c-1.921-0.027-3.455-1.612-3.427-3.537c0.106-6.949,0.245-13.933,0.422-20.924c0.047-1.925,1.652-3.332,3.57-3.393
				c1.92,0.048,3.441,1.646,3.393,3.57c-0.177,6.963-0.316,13.927-0.422,20.856
				C1732.996,2432.495,1731.446,2434.018,1729.545,2434.018z M3136.059,2397.711c-1.7,0-3.186-1.244-3.441-2.978
				c-1.037-7.039-2.087-13.921-3.145-20.626c-0.303-1.897,0.996-3.686,2.893-3.985c1.884-0.285,3.682,1,3.982,2.897
				c1.064,6.732,2.122,13.641,3.159,20.707c0.279,1.897-1.037,3.666-2.938,3.951
				C3136.398,2397.698,3136.225,2397.711,3136.059,2397.711z M1731.82,2364.404c-0.061,0-0.123,0-0.184-0.007
				c-1.922-0.095-3.397-1.734-3.298-3.659c0.367-7.011,0.779-13.988,1.237-20.904c0.13-1.925,1.785-3.441,3.706-3.244
				c1.918,0.129,3.37,1.788,3.244,3.706c-0.46,6.888-0.87,13.824-1.231,20.809
				C1735.196,2362.962,1733.659,2364.404,1731.82,2364.404z M3124.705,2328.968c-1.649,0-3.115-1.176-3.42-2.856
				c-1.32-7.188-2.615-14.029-3.873-20.496c-0.367-1.891,0.864-3.72,2.751-4.087c1.884-0.374,3.717,0.87,4.083,2.754
				c1.264,6.494,2.567,13.362,3.886,20.578c0.347,1.891-0.905,3.706-2.795,4.053
				C3125.124,2328.947,3124.913,2328.968,3124.705,2328.968z M1737.277,2294.98c-0.126,0-0.255-0.007-0.384-0.021
				c-1.911-0.21-3.292-1.931-3.081-3.842c0.782-7.086,1.632-14.042,2.55-20.829c0.262-1.905,2.013-3.332,3.917-2.979
				c1.907,0.258,3.244,2.006,2.985,3.917c-0.911,6.732-1.754,13.621-2.53,20.653
				C1740.537,2293.661,1739.028,2294.98,1737.277,2294.98z M3107.953,2263.488c-0.132,0-0.268-0.007-0.407-0.02
				c-6.447-0.755-13.353-1.503-20.707-2.224c-1.914-0.19-3.315-1.897-3.125-3.808c0.187-1.918,1.836-3.203,3.805-3.129
				c7.402,0.735,14.348,1.482,20.836,2.237c1.907,0.225,3.278,1.952,3.053,3.863
				C3111.2,2262.182,3109.697,2263.488,3107.953,2263.488z M3038.601,2257.218c-0.085,0-0.17,0-0.255-0.007
				c-6.695-0.483-13.635-0.952-20.812-1.407c-1.918-0.122-3.377-1.775-3.254-3.693c0.119-1.931,1.788-3.386,3.696-3.258
				c7.198,0.456,14.158,0.926,20.873,1.408c1.918,0.143,3.359,1.809,3.22,3.726
				C3041.94,2255.817,3040.409,2257.218,3038.601,2257.218z M2969.085,2253.063c-0.061,0-0.119,0-0.18-0.006
				c-6.79-0.347-13.74-0.68-20.85-1.007c-1.921-0.088-3.407-1.714-3.318-3.631c0.088-1.917,1.754-3.448,3.638-3.318
				c7.124,0.327,14.084,0.659,20.884,1.006c1.92,0.095,3.399,1.734,3.301,3.652
				C2972.465,2251.622,2970.924,2253.063,2969.085,2253.063z M2899.515,2250.017c-0.044,0-0.088,0-0.136,0l-20.867-0.755
				c-1.924-0.068-3.427-1.68-3.359-3.604c0.068-1.912,1.782-3.333,3.597-3.36l20.894,0.755c1.921,0.075,3.42,1.694,3.346,3.611
				C2902.918,2248.541,2901.375,2250.017,2899.515,2250.017z M2829.911,2247.698c-0.037,0-0.071,0-0.105,0l-20.876-0.591
				c-1.921-0.054-3.438-1.652-3.387-3.577s1.387-3.339,3.577-3.386l20.89,0.591c1.925,0.061,3.434,1.666,3.379,3.584
				C2833.331,2246.209,2831.785,2247.698,2829.911,2247.698z M2760.297,2245.896c-0.027,0-0.054,0-0.082,0l-20.884-0.462
				c-1.921-0.041-3.448-1.632-3.406-3.556c0.04-1.897,1.591-3.407,3.482-3.407c0.024,0,0.047,0,0.074,0l20.89,0.462
				c1.925,0.048,3.448,1.639,3.404,3.564C2763.731,2244.386,2762.181,2245.896,2760.297,2245.896z M2690.669,2244.495
				c-0.02,0-0.044,0-0.064,0l-20.884-0.361c-1.921-0.034-3.455-1.618-3.424-3.536c0.031-1.904,1.585-3.427,3.482-3.427
				c0.018,0,0.038,0,0.058,0l20.897,0.361c1.925,0.033,3.451,1.625,3.417,3.549
				C2694.114,2242.979,2692.563,2244.495,2690.669,2244.495z M1764.362,2244.488c-1.904,0-3.458-1.53-3.482-3.435
				c-0.024-1.924,1.517-3.502,3.438-3.529l20.907-0.251c0.014,0,0.027,0,0.041,0c1.904,0,3.458,1.53,3.482,3.441
				c0.024,1.925-1.517,3.502-3.441,3.523l-20.9,0.251C1764.393,2244.488,1764.376,2244.488,1764.362,2244.488z M1834.031,2243.692
				c-1.907,0-3.462-1.537-3.482-3.448c-0.02-1.925,1.523-3.495,3.448-3.516l20.901-0.21c0.013,0,0.024,0,0.034,0
				c1.908,0,3.464,1.537,3.482,3.448c0.017,1.924-1.527,3.495-3.448,3.516l-20.9,0.21
				C1834.055,2243.692,1834.042,2243.692,1834.031,2243.692z M2621.034,2243.4c-0.013,0-0.031,0-0.047,0l-20.883-0.272
				c-1.921-0.027-3.462-1.605-3.438-3.523c0.024-1.911,1.578-3.441,3.482-3.441c0.014,0,0.027,0,0.045,0l20.89,0.271
				c1.924,0.027,3.461,1.605,3.434,3.53C2624.489,2241.87,2622.935,2243.4,2621.034,2243.4z M1903.696,2243.02
				c-1.907,0-3.465-1.537-3.482-3.448c-0.017-1.924,1.526-3.495,3.451-3.515l20.901-0.184c0.01,0,0.02,0,0.031,0
				c1.911,0,3.464,1.537,3.482,3.455c0.017,1.918-1.531,3.495-3.451,3.509l-20.901,0.184
				C1903.716,2243.02,1903.707,2243.02,1903.696,2243.02z M2551.403,2242.577c-0.01,0-0.024,0-0.034,0l-20.887-0.197
				c-1.921-0.014-3.468-1.592-3.451-3.51c0.017-1.917,1.571-3.454,3.482-3.454c0.01,0,0.021,0,0.031,0l20.894,0.197
				c1.924,0.02,3.468,1.591,3.448,3.516C2554.865,2241.041,2553.311,2242.577,2551.403,2242.577z M1973.354,2242.455
				c-1.911,0-3.468-1.544-3.482-3.455c-0.013-1.925,1.533-3.496,3.458-3.509l20.89-0.15c0.01,0,0.016,0,0.027,0
				c1.911,0,3.468,1.544,3.482,3.455c0.014,1.925-1.533,3.496-3.455,3.509l-20.897,0.15
				C1973.372,2242.455,1973.361,2242.455,1973.354,2242.455z M2481.769,2241.986c-0.006,0-0.017,0-0.024,0l-20.887-0.136
				c-1.921-0.014-3.471-1.578-3.461-3.502c0.01-1.918,1.567-3.462,3.482-3.462c0.007,0,0.014,0,0.021,0l20.893,0.136
				c1.925,0.014,3.472,1.585,3.458,3.509C2485.237,2240.442,2483.679,2241.986,2481.769,2241.986z M2043.013,2241.986
				c-1.914,0-3.471-1.544-3.482-3.462c-0.01-1.924,1.537-3.488,3.461-3.502l20.901-0.116c0.006,0,0.01,0,0.017,0
				c1.914,0,3.471,1.551,3.482,3.469c0.01,1.917-1.544,3.488-3.465,3.495l-20.893,0.116
				C2043.027,2241.986,2043.02,2241.986,2043.013,2241.986z M2112.671,2241.639c-1.917,0-3.475-1.55-3.482-3.468
				c-0.006-1.925,1.544-3.489,3.469-3.496l20.897-0.082c0.003,0,0.01,0,0.01,0c1.921,0,3.478,1.55,3.485,3.468
				c0.007,1.925-1.544,3.489-3.468,3.496l-20.897,0.081C2112.685,2241.639,2112.675,2241.639,2112.671,2241.639z M2412.131,2241.584
				c-0.003,0-0.01,0-0.01,0l-20.894-0.082c-1.925-0.007-3.475-1.571-3.469-3.496c0.007-1.918,1.565-3.468,3.482-3.468
				c0,0,0.01,0,0.014,0l20.89,0.082c1.925,0.007,3.475,1.571,3.468,3.495C2415.606,2240.034,2414.048,2241.584,2412.131,2241.584z
				 M2182.323,2241.401c-1.918,0-3.475-1.55-3.482-3.468c-0.007-1.925,1.547-3.489,3.471-3.496l20.897-0.047
				c1.785-0.143,3.485,1.557,3.489,3.475c0.003,1.925-1.551,3.482-3.475,3.489l-20.89,0.047H2182.323z M2342.49,2241.36
				c-0.003,0-0.003,0-0.003,0l-20.89-0.034c-1.925,0-3.482-1.564-3.478-3.489c0.004-1.918,1.561-3.475,3.482-3.475h0.004
				l20.893,0.034c1.925,0.006,3.479,1.564,3.475,3.488C2345.968,2239.802,2344.41,2241.36,2342.49,2241.36z M2251.965,2241.292
				c-1.921,0-3.478-1.557-3.482-3.475c-0.003-1.925,1.553-3.489,3.478-3.489h20.826c1.921,0,3.516,1.564,3.512,3.482
				c0,1.925-1.524,3.482-3.444,3.482h-20.887H2251.965z"/>
			
				<linearGradient id="SVGID_00000124134266135568144160000007034765188381870271_" gradientUnits="userSpaceOnUse" x1="2511.9915" y1="2232.9617" x2="2428.4331" y2="2894.9968">
				<stop  offset="0" style="stop-color:#E1473D"/>
				<stop  offset="1" style="stop-color:#E9605A"/>
			</linearGradient>
			<path style="fill:url(#SVGID_00000124134266135568144160000007034765188381870271_);" d="M2550.012,2889.663h-185.709
				c-24.336,0-44.831-18.107-47.719-42.158l-21.456-178.7c-3.418-28.466,18.916-53.51,47.719-53.51h223.097
				c28.219,0,50.365,24.085,47.871,52.062l-15.933,178.701C2595.682,2870.74,2574.907,2889.663,2550.012,2889.663z"/>
		</g>
		<g>
			<g>
				<g>
					<path style="fill:#BDD0FB;" d="M2207.203,978.543c-5.649,0-10.502-4.269-11.102-10.011
						c-1.317-12.556-2.105-25.357-2.347-38.044c-0.117-6.173,4.79-11.273,10.961-11.39c0.074,0,0.146,0,0.218,0
						c6.073,0,11.055,4.864,11.17,10.963c0.229,12.054,0.98,24.213,2.229,36.141c0.644,6.138-3.811,11.639-9.952,12.281
						C2207.985,978.526,2207.592,978.543,2207.203,978.543z M2207.924,881.175c-0.437,0-0.88-0.026-1.325-0.078
						c-6.13-0.725-10.513-6.283-9.789-12.412c1.491-12.591,3.535-25.244,6.075-37.603c1.242-6.047,7.125-9.928,13.198-8.701
						c6.046,1.244,9.939,7.156,8.697,13.198c-2.414,11.749-4.355,23.768-5.77,35.735
						C2218.339,876.997,2213.51,881.175,2207.924,881.175z M2230.065,786.388c-1.244,0-2.51-0.21-3.75-0.65
						c-5.813-2.074-8.85-8.466-6.778-14.281c4.244-11.919,9.062-23.803,14.318-35.32c2.567-5.615,9.197-8.082,14.809-5.527
						c5.614,2.563,8.09,9.195,5.527,14.809c-4.992,10.937-9.565,22.218-13.597,33.539
						C2238.965,783.532,2234.659,786.388,2230.065,786.388z M2272.856,698.913c-2.057,0-4.137-0.568-5.999-1.755
						c-5.204-3.318-6.732-10.229-3.414-15.433c6.811-10.675,14.163-21.183,21.854-31.234c3.753-4.894,10.764-5.828,15.669-2.082
						c4.901,3.751,5.833,10.766,2.083,15.669c-7.304,9.544-14.29,19.524-20.757,29.671
						C2280.157,697.088,2276.547,698.913,2272.856,698.913z M2334.076,623.178c-2.884,0-5.765-1.109-7.95-3.323
						c-4.34-4.392-4.296-11.469,0.096-15.805c8.985-8.876,18.479-17.494,28.215-25.606c4.739-3.956,11.788-3.318,15.741,1.427
						c3.951,4.742,3.312,11.788-1.43,15.743c-9.256,7.71-18.278,15.901-26.817,24.336
						C2339.752,622.104,2336.914,623.178,2334.076,623.178z M2410.521,562.876c-3.735,0-7.385-1.869-9.502-5.274
						c-3.259-5.244-1.652-12.133,3.589-15.394c10.742-6.68,21.908-12.984,33.183-18.729c5.503-2.803,12.231-0.616,15.034,4.885
						c2.802,5.496,0.615,12.229-4.883,15.032c-10.714,5.461-21.321,11.447-31.529,17.795
						C2414.574,562.335,2412.536,562.876,2410.521,562.876z M2820.08,536.266c-1.548,0-3.117-0.323-4.617-1.004
						c-10.932-4.968-22.229-9.526-33.576-13.543c-5.817-2.06-8.865-8.448-6.804-14.263c2.058-5.82,8.446-8.867,14.265-6.807
						c11.95,4.231,23.849,9.029,35.362,14.259c5.621,2.554,8.105,9.181,5.551,14.8
						C2828.391,533.83,2824.328,536.266,2820.08,536.266z M2498.371,521.042c-4.636,0-8.97-2.908-10.565-7.536
						c-2.013-5.837,1.087-12.198,6.922-14.211c11.96-4.125,24.246-7.78,36.516-10.862c5.992-1.476,12.061,2.126,13.565,8.116
						c1.504,5.986-2.131,12.059-8.118,13.565c-11.653,2.925-23.319,6.396-34.677,10.313
						C2500.807,520.841,2499.578,521.042,2498.371,521.042z M2727.462,506.237c-0.738,0-1.487-0.07-2.238-0.223
						c-11.774-2.397-23.809-4.313-35.767-5.706c-6.132-0.716-10.524-6.265-9.81-12.395c0.716-6.13,6.261-10.552,12.395-9.81
						c12.583,1.467,25.246,3.484,37.636,6.003c6.049,1.231,9.957,7.134,8.725,13.181
						C2737.327,502.583,2732.667,506.237,2727.462,506.237z M2593.364,499.881c-5.641,0-10.489-4.257-11.1-9.989
						c-0.655-6.139,3.79-11.644,9.928-12.303c12.567-1.34,25.362-2.157,38.027-2.419c0.078-0.004,0.159-0.004,0.238-0.004
						c6.064,0,11.041,4.851,11.17,10.941c0.129,6.174-4.767,11.281-10.94,11.408c-12.031,0.253-24.183,1.03-36.124,2.305
						C2594.161,499.859,2593.76,499.881,2593.364,499.881z"/>
					<path style="fill:#BDD0FB;" d="M2888.302,575.065c-2.201,0-4.425-0.646-6.37-1.999c-4.73-3.292-9.609-6.536-14.499-9.653
						c-5.206-3.314-6.741-10.225-3.425-15.429c3.314-5.208,10.227-6.749,15.431-3.423c5.145,3.274,10.275,6.689,15.254,10.151
						c5.067,3.523,6.32,10.491,2.796,15.556C2895.318,573.393,2891.838,575.065,2888.302,575.065z"/>
				</g>
				<g>
					<path style="fill:#BDD0FB;" d="M3069.875,863.415c-5.394,0-10.142-3.912-11.024-9.409c-0.91-5.689-1.956-11.456-3.109-17.136
						c-1.227-6.051,2.683-11.95,8.732-13.177c6.075-1.231,11.949,2.685,13.176,8.732c1.211,5.981,2.314,12.054,3.274,18.044
						c0.976,6.095-3.174,11.827-9.269,12.805C3071.058,863.371,3070.462,863.415,3069.875,863.415z"/>
					<path style="fill:#BDD0FB;" d="M2640.542,1367.916c-5.143,0-10.305-0.088-15.485-0.262c-6.169-0.21-11.002-5.379-10.795-11.548
						c0.207-6.169,5.407-11.024,11.546-10.797c11.956,0.402,23.901,0.319,35.638-0.258c6.171-0.292,11.408,4.449,11.712,10.613
						c0.303,6.169-4.451,11.413-10.616,11.714C2655.281,1367.736,2647.879,1367.916,2640.542,1367.916z M2566.354,1361.642
						c-0.624,0-1.259-0.053-1.897-0.162c-12.292-2.1-24.633-4.746-36.676-7.863c-5.974-1.545-9.566-7.644-8.02-13.617
						c1.548-5.977,7.658-9.583,13.622-8.02c11.439,2.96,23.161,5.47,34.842,7.47c6.084,1.039,10.173,6.815,9.133,12.896
						C2576.427,1357.795,2571.701,1361.642,2566.354,1361.642z M2720.946,1360.428c-5.27,0-9.961-3.741-10.971-9.107
						c-1.142-6.069,2.851-11.91,8.917-13.054c11.604-2.183,23.272-4.894,34.685-8.064c5.951-1.642,12.109,1.834,13.759,7.78
						c1.65,5.95-1.834,12.111-7.782,13.761c-12.017,3.336-24.308,6.191-36.528,8.492
						C2722.328,1360.367,2721.632,1360.428,2720.946,1360.428z M2474.236,1335.189c-1.419,0-2.859-0.275-4.252-0.847
						c-11.52-4.746-22.976-10.042-34.048-15.739c-5.488-2.825-7.647-9.561-4.822-15.049c2.825-5.492,9.559-7.653,15.052-4.824
						c10.513,5.409,21.391,10.439,32.332,14.945c5.708,2.348,8.428,8.885,6.077,14.59
						C2482.798,1332.578,2478.631,1335.189,2474.236,1335.189z M2812.512,1332.399c-4.322,0-8.439-2.523-10.264-6.745
						c-2.45-5.667,0.159-12.246,5.826-14.696c10.834-4.68,21.62-9.893,32.061-15.49c5.44-2.917,12.216-0.873,15.132,4.571
						c2.915,5.44,0.869,12.211-4.571,15.127c-10.991,5.894-22.347,11.382-33.755,16.311
						C2815.498,1332.102,2813.992,1332.399,2812.512,1332.399z M2895.713,1284.955c-3.455,0-6.863-1.598-9.05-4.606
						c-3.628-4.995-2.521-11.985,2.473-15.613c9.577-6.959,18.972-14.403,27.924-22.122c4.669-4.038,11.725-3.519,15.763,1.161
						c4.032,4.676,3.51,11.731-1.164,15.765c-9.421,8.125-19.308,15.957-29.386,23.279
						C2900.29,1284.261,2897.992,1284.955,2895.713,1284.955z M2966.591,1220.501c-2.628,0-5.265-0.921-7.391-2.798
						c-4.628-4.082-5.069-11.146-0.985-15.774c7.841-8.885,15.392-18.193,22.443-27.675c3.682-4.951,10.679-5.986,15.638-2.297
						c4.951,3.685,5.981,10.684,2.296,15.639c-7.422,9.976-15.368,19.777-23.617,29.125
						C2972.767,1219.222,2969.686,1220.501,2966.591,1220.501z M3021.721,1142.129c-1.821,0-3.666-0.445-5.375-1.384
						c-5.409-2.973-7.383-9.767-4.409-15.176c5.706-10.378,11.03-21.114,15.828-31.915c2.506-5.641,9.118-8.182,14.75-5.68
						c5.643,2.506,8.184,9.112,5.678,14.752c-5.053,11.377-10.661,22.685-16.667,33.609
						C3029.49,1140.038,3025.666,1142.129,3021.721,1142.129z M3058.316,1053.532c-1.024,0-2.065-0.144-3.098-0.441
						c-5.931-1.707-9.356-7.902-7.647-13.831c3.268-11.352,6.095-22.991,8.4-34.604c1.203-6.056,7.104-9.981,13.139-8.784
						c6.055,1.201,9.989,7.086,8.786,13.142c-2.428,12.224-5.403,24.48-8.845,36.429
						C3067.642,1050.341,3063.171,1053.532,3058.316,1053.532z M3074.542,959.124c-0.229,0-0.46-0.009-0.692-0.022
						c-6.16-0.376-10.851-5.676-10.474-11.836c0.531-8.697,0.799-17.512,0.799-26.209c0-3.148-0.037-6.291-0.104-9.421
						c-0.133-6.173,4.761-11.286,10.932-11.417c6.245-0.258,11.282,4.759,11.417,10.928c0.072,3.297,0.109,6.597,0.109,9.91
						c0,9.147-0.283,18.424-0.842,27.571C3085.326,954.557,3080.403,959.124,3074.542,959.124z"/>
					<path style="fill:#BDD0FB;" d="M2389.99,1288.941c-2.222,0-4.464-0.659-6.418-2.03c-4.951-3.48-9.921-7.129-14.774-10.849
						c-4.901-3.755-5.829-10.771-2.074-15.669c3.757-4.899,10.766-5.833,15.669-2.074c4.61,3.532,9.332,6.999,14.031,10.304
						c5.049,3.545,6.268,10.517,2.718,15.569C2396.967,1287.286,2393.505,1288.941,2389.99,1288.941z"/>
				</g>
				<g>
					
						<linearGradient id="SVGID_00000072255947165938667640000003514919980512694454_" gradientUnits="userSpaceOnUse" x1="2303.3823" y1="918.0562" x2="2977.4009" y2="918.0562">
						<stop  offset="0" style="stop-color:#4F52FF"/>
						<stop  offset="1" style="stop-color:#4042E2"/>
					</linearGradient>
					<path style="fill:url(#SVGID_00000072255947165938667640000003514919980512694454_);" d="M2405.072,1159.302
						c1.409,1.726,3.759,2.37,5.85,1.6l59.672-21.944c23.524,18.116,50.105,32.613,79.002,42.545l14.554,61.848
						c0.51,2.17,2.341,3.776,4.558,4.001l75.874,7.687c2.218,0.224,4.333-0.984,5.268-3.005l26.661-57.674
						c30.302-3.936,59.25-12.806,85.929-25.839l54.06,33.465c1.895,1.173,4.325,1.014,6.052-0.394l59.086-48.216
						c1.728-1.41,2.37-3.759,1.6-5.85l-21.943-59.671c18.117-23.523,32.613-50.106,42.545-79.002l61.849-14.554
						c2.169-0.51,3.776-2.34,4-4.558l7.686-75.875c0.225-2.217-0.982-4.333-3.006-5.267l-57.674-26.661
						c-3.935-30.302-12.805-59.25-25.838-85.929l33.465-54.061c1.172-1.894,1.014-4.325-0.395-6.051l-48.217-59.085
						c-1.409-1.728-3.759-2.369-5.85-1.601l-59.672,21.944c-23.523-18.118-50.105-32.614-79.002-42.545l-14.554-61.85
						c-0.51-2.169-2.34-3.775-4.558-4.001l-75.875-7.685c-2.217-0.225-4.332,0.982-5.268,3.005l-26.661,57.674
						c-30.302,3.934-59.251,12.806-85.929,25.838l-54.059-33.464c-1.895-1.174-4.326-1.015-6.052,0.394l-59.085,48.217
						c-1.727,1.409-2.369,3.758-1.601,5.85l21.943,59.671c-18.117,23.523-32.613,50.106-42.544,79.003l-61.85,14.554
						c-2.168,0.51-3.776,2.341-4,4.559l-7.686,75.873c-0.224,2.217,0.982,4.333,3.005,5.269l57.674,26.661
						c3.936,30.301,12.806,59.249,25.838,85.928l-33.464,54.06c-1.174,1.895-1.015,4.324,0.394,6.052L2405.072,1159.302z"/>
					<path style="opacity:0.56;fill:#FFFFFF;" d="M2640.341,994.719c-37.368,0-70.179-27.44-75.787-65.484
						c-6.162-41.82,22.844-80.852,64.661-87.016c20.26-2.991,40.467,2.095,56.898,14.307c16.435,12.211,27.132,30.094,30.116,50.352
						c6.163,41.821-22.844,80.852-64.661,87.016C2647.798,994.449,2644.045,994.719,2640.341,994.719z M2640.516,859.272
						c-2.886,0-5.787,0.21-8.695,0.638c-32.061,4.724-54.301,34.657-49.577,66.715c4.726,32.063,34.648,54.316,66.717,49.579
						c32.061-4.724,54.301-34.656,49.577-66.715c-2.29-15.534-10.489-29.243-23.091-38.608
						C2665.205,863.271,2653.048,859.272,2640.516,859.272z"/>
					<path style="opacity:0.56;fill:#FFFFFF;" d="M2641.908,1105.438c-6.418,0-12.873-0.323-19.345-0.978l0,0
						c-2.037-0.205-4.072-0.445-6.102-0.716c-10.009-1.34-19.896-3.475-29.507-6.37c-0.131-0.039-0.262-0.079-0.393-0.118
						c-0.371-0.114-0.742-0.227-1.113-0.345c-0.722-0.223-1.443-0.454-2.161-0.685c-1.89-0.611-3.093-2.362-3.095-4.248
						c0-0.458,0.072-0.925,0.22-1.384c0.76-2.349,3.283-3.628,5.63-2.873c12.087,3.916,24.677,6.554,37.42,7.841
						c63.299,6.423,122.359-21.03,159.139-67.605c20.461-25.903,34.026-57.726,37.59-92.932c0.627-6.174,0.937-12.334,0.934-18.455
						c-0.004-41.196-14.06-80.808-40.458-113.155c-30.321-37.158-73.299-60.284-121.012-65.117
						c-98.542-9.972-186.753,62.044-196.729,160.538c-0.616,6.073-0.921,12.155-0.919,18.219
						c0.004,26.279,5.759,52.264,16.942,76.071c0.288,0.616,0.426,1.262,0.424,1.899c0,1.676-0.95,3.287-2.57,4.047
						c-2.239,1.044-4.898,0.096-5.948-2.148c-11.74-24.995-17.784-52.277-17.789-79.865c-0.002-6.365,0.319-12.748,0.963-19.122
						c10.474-103.411,103.153-179.006,206.526-168.537c50.092,5.073,95.207,29.352,127.039,68.361
						c27.715,33.958,42.469,75.543,42.476,118.792c0,6.427-0.325,12.893-0.98,19.371c-5.075,50.094-29.352,95.211-68.359,127.043
						C2726.764,1090.686,2685.166,1105.438,2641.908,1105.438z"/>
				</g>
			</g>
			<g>
				<g>
					<path style="fill:#BDD0FB;" d="M1825.793,1273.084c-2.986,0-5.737-1.948-6.62-4.961c-1.651-5.623-3.155-11.373-4.466-17.089
						c-0.852-3.715,1.466-7.415,5.184-8.272c3.718-0.869,7.419,1.47,8.272,5.184c1.25,5.447,2.682,10.928,4.257,16.294
						c1.075,3.654-1.022,7.489-4.679,8.568C1827.09,1272.996,1826.437,1273.084,1825.793,1273.084z"/>
					<path style="fill:#BDD0FB;" d="M1815.576,1220.974c-3.499,0-6.499-2.65-6.859-6.202c-1.025-10.039-1.544-20.245-1.544-30.33
						c0-2.123,0.024-4.254,0.068-6.391c0.084-3.815,3.441-6.694,7.048-6.762c3.812,0.081,6.836,3.236,6.758,7.045
						c-0.043,2.043-0.068,4.079-0.068,6.108c0,9.62,0.496,19.354,1.47,28.927c0.388,3.795-2.373,7.18-6.165,7.571
						C1816.045,1220.96,1815.809,1220.974,1815.576,1220.974z M1817.093,1149.312c-0.327,0-0.661-0.02-0.991-0.067
						c-3.775-0.546-6.394-4.045-5.852-7.82c1.74-12.108,4.248-24.216,7.453-35.979c1.001-3.681,4.814-5.838,8.474-4.847
						c3.681,1.004,5.848,4.793,4.847,8.474c-3.057,11.225-5.447,22.773-7.109,34.32
						C1823.419,1146.832,1820.47,1149.312,1817.093,1149.312z M1835.942,1080.16c-0.876,0-1.766-0.169-2.626-0.519
						c-3.526-1.45-5.204-5.488-3.755-9.013c4.651-11.292,10.058-22.422,16.078-33.066c1.878-3.324,6.078-4.49,9.408-2.609
						c3.317,1.874,4.486,6.088,2.612,9.404c-5.74,10.152-10.897,20.757-15.33,31.53
						C1841.23,1078.549,1838.655,1080.16,1835.942,1080.16z M1871.216,1017.755c-1.43,0-2.868-0.445-4.105-1.355
						c-3.061-2.272-3.705-6.599-1.433-9.66c7.291-9.829,15.253-19.287,23.672-28.118c2.633-2.757,7.005-2.852,9.758-0.229
						c2.76,2.629,2.865,6.997,0.233,9.761c-8.026,8.414-15.623,17.44-22.573,26.811
						C1875.413,1016.791,1873.329,1017.755,1871.216,1017.755z M1920.661,965.859c-1.996,0-3.978-0.863-5.343-2.528
						c-2.416-2.946-1.985-7.294,0.961-9.714c9.452-7.746,19.469-14.986,29.777-21.512c3.222-2.049,7.486-1.085,9.526,2.137
						c2.039,3.222,1.082,7.489-2.137,9.525c-9.836,6.229-19.392,13.133-28.408,20.528
						C1923.751,965.347,1922.201,965.859,1920.661,965.859z M1981.195,927.542c-2.585,0-5.066-1.463-6.246-3.957
						c-1.628-3.445-0.151-7.557,3.293-9.188c11.049-5.218,22.53-9.795,34.118-13.598c3.637-1.18,7.523,0.789,8.713,4.409
						c1.189,3.62-0.786,7.523-4.406,8.71c-11.053,3.627-21.993,7.988-32.527,12.963
						C1983.187,927.333,1982.183,927.542,1981.195,927.542z M2049.242,905.194c-3.235,0-6.124-2.285-6.768-5.575
						c-0.732-3.742,1.708-7.368,5.45-8.103c11.953-2.339,24.209-3.957,36.431-4.814c3.815-0.202,7.105,2.609,7.368,6.411
						c0.266,3.802-2.602,7.099-6.404,7.368c-11.659,0.809-23.349,2.353-34.745,4.584
						C2050.125,905.154,2049.68,905.194,2049.242,905.194z M2156.42,904.318c-0.398,0-0.806-0.034-1.214-0.108
						c-9.909-1.76-20.089-3.007-30.259-3.708c-1.54-0.115-3.053-0.209-4.563-0.284c-3.809-0.202-6.735-3.445-6.536-7.253
						c0.193-3.816,3.469-6.849,7.25-6.539c1.611,0.088,3.219,0.182,4.833,0.303c10.625,0.735,21.296,2.043,31.688,3.89
						c3.755,0.667,6.256,4.247,5.589,8.002C2162.615,901.965,2159.706,904.318,2156.42,904.318z"/>
				</g>
				<g>
					<path style="fill:#BDD0FB;" d="M2109.389,1482.289c-3.769,0-6.849-3.034-6.9-6.816c-0.051-3.809,3-6.944,6.812-6.991
						c11.477-0.148,23.042-0.998,34.375-2.528c3.759-0.472,7.257,2.136,7.766,5.919c0.509,3.781-2.144,7.254-5.919,7.766
						c-11.885,1.597-24.009,2.494-36.039,2.65C2109.453,1482.289,2109.419,1482.289,2109.389,1482.289z M2074.111,1480.624
						c-0.25,0-0.496-0.014-0.748-0.041c-11.949-1.281-23.942-3.303-35.645-6.006c-3.715-0.863-6.03-4.564-5.17-8.278
						c0.856-3.722,4.584-6.02,8.278-5.177c11.167,2.582,22.611,4.51,34.013,5.737c3.789,0.405,6.532,3.809,6.125,7.598
						C2080.583,1478.002,2077.59,1480.624,2074.111,1480.624z M2179.24,1472.851c-3.061,0-5.858-2.05-6.674-5.151
						c-0.968-3.681,1.234-7.456,4.921-8.427c11.106-2.925,22.125-6.546,32.756-10.773c3.556-1.395,7.557,0.324,8.962,3.87
						c1.409,3.539-0.323,7.557-3.866,8.966c-11.144,4.429-22.698,8.224-34.34,11.285
						C2180.409,1472.777,2179.82,1472.851,2179.24,1472.851z M2005.406,1464.701c-0.785,0-1.584-0.135-2.366-0.418
						c-11.298-4.119-22.456-8.98-33.158-14.447c-3.397-1.733-4.742-5.892-3.01-9.29c1.733-3.384,5.892-4.732,9.286-3.006
						c10.206,5.211,20.841,9.842,31.614,13.772c3.58,1.307,5.427,5.271,4.119,8.851
						C2010.87,1462.962,2008.224,1464.701,2005.406,1464.701z M2244.732,1446.809c-2.444,0-4.813-1.301-6.064-3.593
						c-1.831-3.35-0.597-7.543,2.747-9.37c10.055-5.487,19.877-11.649,29.197-18.323c3.104-2.225,7.415-1.504,9.633,1.598
						c2.218,3.101,1.503,7.415-1.597,9.633c-9.775,6.991-20.072,13.456-30.613,19.213
						C2246.984,1446.54,2245.848,1446.809,2244.732,1446.809z M2302.068,1405.815c-1.871,0-3.732-0.755-5.093-2.239
						c-2.576-2.811-2.386-7.179,0.425-9.754c8.467-7.76,16.536-16.099,23.982-24.782c2.484-2.899,6.846-3.229,9.735-0.748
						c2.895,2.481,3.229,6.835,0.748,9.728c-7.807,9.107-16.264,17.851-25.136,25.981
						C2305.405,1405.215,2303.733,1405.815,2302.068,1405.815z M2347.936,1352.261c-1.314,0-2.643-0.371-3.819-1.159
						c-3.176-2.11-4.035-6.398-1.922-9.573c6.367-9.553,12.199-19.584,17.333-29.811c1.712-3.398,5.861-4.78,9.266-3.067
						c3.407,1.712,4.782,5.858,3.071,9.269c-5.386,10.719-11.501,21.243-18.175,31.266
						C2352.358,1351.183,2350.167,1352.261,2347.936,1352.261z"/>
					<path style="fill:#BDD0FB;" d="M1942.321,1432.471c-1.332,0-2.676-0.385-3.863-1.187c-4.894-3.31-9.711-6.782-14.322-10.314
						c-3.024-2.319-3.6-6.654-1.281-9.681c2.323-3.013,6.651-3.593,9.681-1.281c4.395,3.371,8.993,6.681,13.661,9.843
						c3.158,2.137,3.984,6.431,1.847,9.586C1946.709,1431.405,1944.535,1432.471,1942.321,1432.471z"/>
				</g>
				<g>
					
						<linearGradient id="SVGID_00000013173164002255355570000012546478475784915348_" gradientUnits="userSpaceOnUse" x1="1880.0131" y1="1181.8611" x2="2331.0354" y2="1181.8611">
						<stop  offset="0" style="stop-color:#4F52FF"/>
						<stop  offset="1" style="stop-color:#4042E2"/>
					</linearGradient>
					<path style="fill:url(#SVGID_00000013173164002255355570000012546478475784915348_);" d="M1948.059,1343.292
						c0.942,1.155,2.515,1.586,3.914,1.071l39.93-14.684c15.741,12.123,33.528,21.824,52.864,28.469l9.739,41.386
						c0.341,1.452,1.566,2.527,3.05,2.677l50.771,5.144c1.484,0.15,2.899-0.658,3.526-2.011l17.84-38.593
						c20.277-2.634,39.648-8.569,57.5-17.29l36.174,22.393c1.268,0.784,2.895,0.679,4.05-0.264l39.537-32.264
						c1.156-0.944,1.586-2.516,1.071-3.915l-14.684-39.929c12.123-15.741,21.823-33.529,28.469-52.865l41.386-9.738
						c1.452-0.342,2.527-1.566,2.677-3.05l5.143-50.772c0.15-1.484-0.657-2.9-2.011-3.525l-38.593-17.841
						c-2.633-20.277-8.569-39.648-17.29-57.499l22.393-36.175c0.784-1.267,0.678-2.894-0.264-4.049l-32.265-39.538
						c-0.942-1.156-2.515-1.585-3.914-1.071l-39.93,14.684c-15.74-12.124-33.528-21.824-52.865-28.469l-9.739-41.387
						c-0.342-1.451-1.566-2.527-3.05-2.677l-50.772-5.143c-1.484-0.151-2.899,0.657-3.525,2.011l-17.84,38.593
						c-20.277,2.633-39.648,8.569-57.5,17.29l-36.173-22.393c-1.268-0.786-2.895-0.679-4.05,0.264l-39.537,32.264
						c-1.155,0.943-1.586,2.515-1.071,3.915l14.683,39.929c-12.123,15.741-21.823,33.529-28.469,52.865l-41.387,9.738
						c-1.45,0.341-2.527,1.566-2.676,3.051l-5.144,50.771c-0.15,1.484,0.657,2.899,2.011,3.525l38.593,17.841
						c2.634,20.276,8.569,39.647,17.289,57.499l-22.392,36.175c-0.785,1.268-0.679,2.894,0.264,4.05L1948.059,1343.292z"/>
					<path style="opacity:0.56;fill:#FFFFFF;" d="M2105.414,1234.085c-11.136,0-21.936-3.552-31.037-10.314
						c-11.194-8.319-18.478-20.501-20.51-34.3c-4.2-28.476,15.555-55.064,44.041-59.27c28.53-4.153,55.078,15.566,59.274,44.048
						c2.036,13.8-1.426,27.566-9.745,38.756c-8.318,11.198-20.5,18.485-34.303,20.514
						C2110.555,1233.897,2107.973,1234.085,2105.414,1234.085z M2105.546,1143.448c-1.858,0-3.735,0.135-5.626,0.411
						c-20.952,3.094-35.483,22.651-32.395,43.603c1.497,10.146,6.853,19.112,15.087,25.226c8.238,6.121,18.361,8.656,28.513,7.173
						l0,0c10.149-1.497,19.112-6.856,25.23-15.088c6.121-8.238,8.666-18.363,7.169-28.516
						C2140.716,1157.2,2124.271,1143.448,2105.546,1143.448z"/>
					<path style="opacity:0.56;fill:#FFFFFF;" d="M2106.406,1311.153c-4.368,0-8.771-0.223-13.207-0.668
						c-8.808-0.89-17.534-2.676-25.957-5.319c-0.377-0.121-0.755-0.243-1.133-0.364c-2.919-0.944-4.776-3.647-4.78-6.559
						c0-0.708,0.111-1.429,0.34-2.137c1.174-3.627,5.07-5.596,8.693-4.436c7.841,2.542,15.991,4.247,24.222,5.077h0.003
						c0.452,0.047,0.906,0.087,1.355,0.128c19.499,1.786,38.705-1.355,56.223-8.905c9.509-4.099,18.522-9.506,26.811-16.146
						c0.068-0.054,0.135-0.108,0.202-0.162c0.206-0.169,0.411-0.331,0.614-0.499c24.053-19.631,39.026-47.452,42.154-78.341
						c0.408-3.998,0.607-7.982,0.607-11.946c-0.004-26.669-9.105-52.313-26.193-73.258c-19.631-24.053-47.453-39.02-78.339-42.147
						c-30.869-3.115-61.148,5.959-85.204,25.584c-24.053,19.63-39.026,47.452-42.154,78.341c-0.401,3.93-0.596,7.867-0.596,11.791
						c0.003,17.016,3.728,33.835,10.968,49.246c0.445,0.951,0.658,1.948,0.654,2.932c0,2.589-1.466,5.077-3.967,6.249
						c-3.455,1.611-7.561,0.141-9.185-3.317c-8.1-17.244-12.269-36.066-12.276-55.097c0-4.395,0.219-8.797,0.664-13.193
						c3.502-34.563,20.251-65.688,47.166-87.651c26.911-21.957,60.747-32.15,95.32-28.624c34.559,3.499,65.684,20.244,87.645,47.162
						c19.122,23.427,29.301,52.118,29.304,81.955c0,4.429-0.222,8.892-0.674,13.361
						C2228.903,1261.118,2172.262,1311.153,2106.406,1311.153z"/>
				</g>
			</g>
		</g>
		<g>
			
				<linearGradient id="SVGID_00000128474782683445480850000004556755060642389391_" gradientUnits="userSpaceOnUse" x1="1786.6223" y1="2533.0295" x2="3060.77" y2="2533.0295" gradientTransform="matrix(0.9427 -0.3337 0.3337 0.9427 -2043.3789 1161.892)">
				<stop  offset="0" style="stop-color:#2B3582"/>
				<stop  offset="1" style="stop-color:#150E42"/>
			</linearGradient>
			<path style="fill:url(#SVGID_00000128474782683445480850000004556755060642389391_);" d="M1557.182,2250.261l-972.871,801.695
				c-40.804,33.623-44.315,94.876-7.624,132.944l6.024,6.25c32.466,33.68,86.142,34.494,119.612,1.814l906.786-885.399
				L1557.182,2250.261z"/>
			
				<ellipse transform="matrix(0.9427 -0.3337 0.3337 0.9427 -494.9496 766.5255)" style="opacity:0.5;fill:#FFFFFF;" cx="1983.94" cy="1824.099" rx="584.779" ry="574.231"/>
			
				<linearGradient id="SVGID_00000141428672199305227140000008414358002233380760_" gradientUnits="userSpaceOnUse" x1="537.6052" y1="2037.5214" x2="1839.0055" y2="2037.5214" gradientTransform="matrix(0.9557 -0.2943 0.2943 0.9557 248.6347 226.5585)">
				<stop  offset="0" style="stop-color:#2B3582"/>
				<stop  offset="1" style="stop-color:#150E42"/>
			</linearGradient>
			<path style="fill:url(#SVGID_00000141428672199305227140000008414358002233380760_);" d="M1770.747,1221.752
				c-338.778,119.907-517.962,486.792-400.22,819.457c117.744,332.669,487.828,505.145,826.607,385.238
				c338.779-119.907,517.965-486.788,400.22-819.458C2479.611,1274.324,2109.526,1101.845,1770.747,1221.752z M2165.815,2337.963
				c-289.012,102.293-604.733-44.845-705.18-328.648c-100.448-283.799,52.417-596.79,341.429-699.081
				c289.014-102.293,604.735,44.848,705.183,328.647C2607.694,1922.684,2454.83,2235.671,2165.815,2337.963z"/>
			<path style="fill:#FFFFFF;" d="M1442.12,2096.866c-0.611,0-1.197-0.335-1.49-0.917c-6.838-13.553-13.234-27.566-19.015-41.647
				c-0.35-0.852,0.057-1.827,0.909-2.176c0.852-0.355,1.826,0.057,2.176,0.909c5.748,14.003,12.11,27.936,18.907,41.412
				c0.415,0.823,0.085,1.826-0.738,2.24C1442.628,2096.809,1442.372,2096.866,1442.12,2096.866z M1386.71,1926.948
				c-0.803,0-1.51-0.58-1.644-1.397c-6.732-41.002-9.072-82.854-6.961-124.395c5.982-117.628,46.694-230.517,117.734-326.465
				c72.734-98.235,172.671-171.923,289.008-213.099c109.415-38.726,226.535-45.981,338.707-20.969
				c0.899,0.201,1.466,1.092,1.264,1.99c-0.199,0.901-1.091,1.466-1.99,1.264c-111.558-24.867-228.045-17.655-336.867,20.858
				c-115.708,40.955-215.104,114.243-287.441,211.941c-70.647,95.417-111.134,207.678-117.083,324.649
				c-2.101,41.303,0.228,82.917,6.919,123.685c0.15,0.909-0.466,1.767-1.375,1.917
				C1386.891,1926.941,1386.799,1926.948,1386.71,1926.948z"/>
			<path style="fill:#FFFFFF;" d="M655.67,3188.518c-37.424,0.002-61.657-13.053-72.05-38.813
				c-10.576-26.217-2.57-56.873,19.923-76.284l115.58-99.743c0.694-0.603,1.751-0.528,2.352,0.172
				c0.603,0.697,0.525,1.751-0.172,2.352l-115.58,99.743c-21.412,18.479-29.051,47.62-19.008,72.512
				c9.939,24.632,33.398,37.005,70.12,36.72c0.003,0,0.008,0,0.011,0c0.915,0,1.661,0.74,1.668,1.656
				c0.007,0.92-0.735,1.673-1.657,1.679C656.464,3188.517,656.063,3188.518,655.67,3188.518z"/>
			<path style="fill:#FFFFFF;" d="M755.827,2945.873c-0.467,0-0.933-0.196-1.262-0.578c-0.603-0.697-0.525-1.751,0.173-2.352
				l14.979-12.928c0.692-0.601,1.751-0.528,2.352,0.173c0.603,0.697,0.525,1.751-0.172,2.352l-14.979,12.928
				C756.602,2945.739,756.213,2945.873,755.827,2945.873z"/>
		</g>
	</g>
</g>
</svg>
